<svg id="Layer_21" data-name="Layer 21" xmlns="http://www.w3.org/2000/svg" viewBox="0 0 1018.89 206.88"><defs><style>.cls-1{fill:#5b5c5c;}.cls-2{fill:#4a494a;}.cls-3{fill:#bababa;}.cls-4{fill:#0a4d59;}.cls-5{fill:#454545;}.cls-6,.cls-7,.cls-8{fill:none;stroke:#fff;}.cls-6,.cls-7{stroke-miterlimit:10;}.cls-7{stroke-width:2px;}.cls-8{stroke-linecap:round;stroke-linejoin:round;}.cls-9{fill:#757576;}</style></defs><title>logo-tagline</title><path class="cls-1" d="M277.54,132.4v47.06a10.76,10.76,0,0,1-7,10.06L232,204h0V148.56Z" transform="translate(-34.7 -24.27)"/><polygon class="cls-1" points="242.83 69.48 242.83 108.13 197.25 124.29 172.44 133.09 172.44 94.57 172.4 94.46 197.25 85.65 242.83 69.48"/><polygon class="cls-2" points="242.83 28.13 242.83 69.48 197.25 85.65 197.25 45.23 242.83 28.13"/><path class="cls-3" d="M277.54,52.4L232,69.5,156.29,97.9,76.76,68.06h0L35,52.4,147.42,25.51a27.07,27.07,0,0,1,12.34-.06Z" transform="translate(-34.7 -24.27)"/><path class="cls-4" d="M207.15,157.36l24.81-8.8V204h0l-69.19,26a18.42,18.42,0,0,1-13,0L76.59,202.49V147.14L107.25,158l43.51,15.43a16.53,16.53,0,0,0,11.06,0Z" transform="translate(-34.7 -24.27)"/><path class="cls-1" d="M232,69.5v40.42l-24.85,8.81L163.76,134.1a19.32,19.32,0,0,1-6.5,1.12l-1-37.32Z" transform="translate(-34.7 -24.27)"/><path class="cls-5" d="M157.26,135.22a19.32,19.32,0,0,0,6.5-1.12l43.35-15.37,0,0.11v38.52l-45.33,16.08a16.53,16.53,0,0,1-11.06,0L107.25,158l0.18-.52V118.84l0-.11,43.35,15.37A19.27,19.27,0,0,0,157.26,135.22Z" transform="translate(-34.7 -24.27)"/><path class="cls-1" d="M156.29,97.9l1,37.32a19.27,19.27,0,0,1-6.44-1.12l-43.35-15.37L76.59,107.78V68.5l0.17-.44Z" transform="translate(-34.7 -24.27)"/><polygon class="cls-1" points="72.76 94.46 72.72 94.57 72.72 133.22 72.54 133.74 41.88 122.87 41.88 122.86 0.33 108.13 0.33 69.13 1.33 69.13 41.88 83.51 72.76 94.46"/><polygon class="cls-5" points="42.05 43.78 42.05 43.79 41.88 44.23 41.88 83.51 1.33 69.13 0.33 69.13 0.33 28.13 42.05 43.78"/><path class="cls-1" d="M76.59,147.14v55.35L41.65,189.38A10.18,10.18,0,0,1,35,179.84V132.4l41.55,14.73h0Z" transform="translate(-34.7 -24.27)"/><line class="cls-6" x1="41.88" y1="122.86" x2="0.33" y2="108.13"/><path class="cls-6" d="M277.54,132.4L232,148.56l-24.81,8.8-45.33,16.08a16.53,16.53,0,0,1-11.06,0L107.25,158,76.59,147.14" transform="translate(-34.7 -24.27)"/><path class="cls-6" d="M278.54,93.4l-1,.35L232,109.92l-24.85,8.81L163.76,134.1a19.25,19.25,0,0,1-12.94,0l-43.35-15.37L76.59,107.78,36,93.4" transform="translate(-34.7 -24.27)"/><line class="cls-6" x1="197.25" y1="124.29" x2="197.25" y2="179.73"/><polyline class="cls-6" points="41.88 122.86 41.88 122.87 41.88 178.22"/><polyline class="cls-6" points="172.44 94.57 172.44 133.09 172.44 133.22"/><line class="cls-6" x1="72.72" y1="94.57" x2="72.72" y2="133.22"/><polyline class="cls-6" points="121.58 73.63 122.55 110.95 122.58 112.13"/><line class="cls-6" x1="197.25" y1="45.23" x2="197.25" y2="85.65"/><path class="cls-6" d="M35,52.4L147.42,25.51a27.07,27.07,0,0,1,12.34-.06l117.78,27" transform="translate(-34.7 -24.27)"/><line class="cls-6" x1="41.88" y1="44.23" x2="41.88" y2="83.51"/><path class="cls-7" d="M277.54,53.4l-117,41.48a12.78,12.78,0,0,1-8.55,0L35,53.4" transform="translate(-34.7 -24.27)"/><line class="cls-8" x1="15.33" y1="75.25" x2="15.33" y2="113.9"/><line class="cls-8" x1="228.33" y1="74.25" x2="228.33" y2="112.9"/><path class="cls-4" d="M376.76,114.66c-2.22,13.32-10.7,23.89-28.59,23.89-20,0-29.5-12.66-29.5-34.72,0-20.63,11.1-34.85,30.42-34.85,20.63,0,27,14.62,27.54,24.54H361.35C360.44,86.85,357.18,81,348.82,81c-10.31,0-14.49,9.14-14.49,22.32,0,16.19,5.22,23.37,14.23,23.37,8.22,0,11.1-5.22,12.92-12h15.27Z" transform="translate(-34.7 -24.27)"/><path class="cls-4" d="M445.05,102.78c0,19.58-9,35.77-31.33,35.77-22.58,0-30.81-17.1-30.81-35.38,0-17,9.53-34.2,31.59-34.2C435.26,69,445.05,84.24,445.05,102.78Zm-46.47.13c0,14.62,5.35,23.5,15.8,23.5,10.05,0,15.14-8.75,15.14-23.5,0-13.71-5.09-21.67-15.67-21.67C403.93,81.24,398.58,89.86,398.58,102.91Z" transform="translate(-34.7 -24.27)"/><path class="cls-4" d="M455.68,93c0-10.83,0-18.54-.26-22.71h15c0.26,3,.39,7.31.39,12.4,2.61-6.53,9-13.45,20.76-13.58V84.77c-14.23.13-20.49,6.14-20.49,21.28v31.33h-15.4V93Z" transform="translate(-34.7 -24.27)"/><path class="cls-4" d="M499.35,91.16c0-13.84-.13-18-0.26-20.89h15a77.39,77.39,0,0,1,.52,9.27c2.74-5.48,9-10.57,19.06-10.57C547.25,69,555,77.33,555,93.64v43.73h-15.4v-41c0-8.22-2.35-14.62-11.23-14.62-9.4,0-13.58,6.14-13.58,18.67v36.94h-15.4V91.16Z" transform="translate(-34.7 -24.27)"/><path class="cls-4" d="M581,107.22c-0.13,9.92,3.92,19.19,14.49,19.19,9,0,11.75-5.87,12.79-9h15.14c-2.87,10.18-10.31,21.15-28.46,21.15-21.28,0-29.5-15.27-29.5-34.72,0-16.58,8.22-34.85,30.29-34.85s28.59,16.19,28.59,32.9c0,0.65-.13,4.44-0.26,5.35H581Zm28.33-10.44C609,88,605.46,80.72,595.54,80.72c-11.1,0-13.84,9.4-14.23,16.06h28.07Z" transform="translate(-34.7 -24.27)"/><path class="cls-4" d="M635,93c0-10.83,0-18.54-.26-22.71h15c0.26,3,.39,7.31.39,12.4,2.61-6.53,9-13.45,20.76-13.58V84.77c-14.23.13-20.49,6.14-20.49,21.28v31.33H635V93Z" transform="translate(-34.7 -24.27)"/><path class="cls-4" d="M689.79,117.14c1,6.4,5.61,10.05,12.79,10.05s10.7-3.26,10.7-8c0-5-4-7.18-14.62-10.18-17.36-4.83-21.54-11-21.54-20.36,0-8.62,5.48-19.71,24.41-19.71,17.36,0,24.41,9,25.19,20h-15c-0.65-4.18-3-8.62-10.83-8.62-5.74,0-8.75,2.61-8.75,7,0,4,2.61,6,12.92,8.75,17.88,4.57,23.37,11,23.37,21.67,0,13.32-11,20.76-26.37,20.76s-25.85-7-27.28-21.41h15Z" transform="translate(-34.7 -24.27)"/><path class="cls-4" d="M731.89,70.28h9.92V51.61h15.27V70.28h12.53V82.42H757.08v36.94c0,5,1.17,7,6.79,7a26.68,26.68,0,0,0,4.44-.39v10.83a36.9,36.9,0,0,1-10.18,1.31c-11.88,0-16.32-4.83-16.32-16.84V82.42h-9.92V70.28Z" transform="translate(-34.7 -24.27)"/><path class="cls-4" d="M835.1,102.78c0,19.58-9,35.77-31.33,35.77-22.58,0-30.81-17.1-30.81-35.38,0-17,9.53-34.2,31.59-34.2C825.31,69,835.1,84.24,835.1,102.78Zm-46.47.13c0,14.62,5.35,23.5,15.79,23.5,10.05,0,15.14-8.75,15.14-23.5,0-13.71-5.09-21.67-15.66-21.67C794,81.24,788.63,89.86,788.63,102.91Z" transform="translate(-34.7 -24.27)"/><path class="cls-4" d="M845.74,91.16c0-13.84-.13-18-0.26-20.89h15a77.47,77.47,0,0,1,.52,9.27C863.75,74.06,870,69,880.07,69c13.58,0,21.28,8.35,21.28,24.67v43.73h-15.4v-41c0-8.22-2.35-14.62-11.23-14.62-9.4,0-13.58,6.14-13.58,18.67v36.94h-15.4V91.16Z" transform="translate(-34.7 -24.27)"/><path class="cls-4" d="M927.44,107.22c-0.13,9.92,3.92,19.19,14.49,19.19,9,0,11.75-5.87,12.79-9h15.14c-2.87,10.18-10.31,21.15-28.46,21.15-21.28,0-29.5-15.27-29.5-34.72,0-16.58,8.22-34.85,30.29-34.85s28.59,16.19,28.59,32.9c0,0.65-.13,4.44-0.26,5.35H927.44Zm28.33-10.44c-0.39-8.75-3.92-16.06-13.84-16.06-11.1,0-13.84,9.4-14.23,16.06h28.07Z" transform="translate(-34.7 -24.27)"/><path class="cls-9" d="M326.05,152.27h2.46l-2.62,12.4a7.46,7.46,0,0,1,6.52-3.66c3.58,0,5.92,2.5,5.92,7,0,5.19-2.58,13.93-10.14,13.93-3.14,0-4.71-1.53-5.23-3.62-0.12.76-.56,2.54-0.76,3.26h-2.37c0.16-.85.64-2.9,1.21-5.51Zm9.7,16.14c0-3.58-1.65-5.19-4.11-5.19-4.11,0-6.48,4-7.33,8.05s-0.64,8.53,4,8.53C333.5,179.8,335.75,172.72,335.75,168.41Z" transform="translate(-34.7 -24.27)"/><path class="cls-9" d="M343.24,171.87a12.64,12.64,0,0,0-.24,2.54c0,3.26,1.29,5.47,4.51,5.47,3.62,0,4.83-2.58,5.6-3.95h2.5c-0.89,2.13-2.9,6.08-8.41,6.08-4.79,0-6.68-3.3-6.68-7.57,0-5.8,3.14-13.44,10.06-13.44,4.63,0,6.48,3.18,6.48,7a18.57,18.57,0,0,1-.52,3.9H343.24Zm11.19-2a9.1,9.1,0,0,0,.2-1.89c0-3-1.37-4.87-4.39-4.87-3.5,0-5.72,3.22-6.6,6.76h10.79Z" transform="translate(-34.7 -24.27)"/><path class="cls-9" d="M374.4,175.66c-1.41,3.9-4.19,6.44-8.69,6.44s-6.56-3.06-6.56-7.61c0-5.63,3.14-13.48,10.18-13.48,4.67,0,6.56,3.1,6.36,6.84h-2.46c0-2.09-.6-4.67-4.23-4.67-4.83,0-7.29,6.48-7.29,11.11,0,3.66,1.57,5.64,4.47,5.64,2.62,0,4.39-1.41,5.72-4.27h2.5Z" transform="translate(-34.7 -24.27)"/><path class="cls-9" d="M391,177.11c-0.28,1.33-.76,3.54-0.89,4.51h-2.33a25.88,25.88,0,0,1,.52-2.94c-1,1.61-2.66,3.3-6.32,3.3a5,5,0,0,1-5.35-5.31c0-4,2.86-6.52,8.57-7a45.34,45.34,0,0,1,5-.2l0.28-1.33c0.56-2.58.16-5.07-3.82-5.07-3.22,0-4.27,1.73-4.91,3.66h-2.5c0.72-3,2.74-5.72,7.65-5.72,4.27,0,7.08,2,6,7.29Zm-1.21-5.67a31.61,31.61,0,0,0-4.47.16c-3.54.28-6.12,1.73-6.12,4.79a3.21,3.21,0,0,0,3.54,3.46c4.47,0,6-3.7,6.8-7.25Z" transform="translate(-34.7 -24.27)"/><path class="cls-9" d="M410.51,176c-0.48,2.38-.93,4.63-1.09,5.64H407c0.08-.56.36-2.29,0.6-3.42a7.16,7.16,0,0,1-6.44,3.78c-2.9,0-5.92-1.65-4.71-7.33l2.82-13.28h2.46L399,174.17c-0.64,3.14-.32,5.55,3,5.55,3,0,5.6-2,6.76-7.41l2.38-10.95h2.5Z" transform="translate(-34.7 -24.27)"/><path class="cls-9" d="M416.57,175.5c0.12,2.74,1.65,4.43,4.67,4.43,2.7,0,4.35-1.61,4.35-3.78,0-1.77-1-2.86-4-4.27-3.3-1.45-4.91-2.54-4.91-5.35,0-3,2.13-5.51,6.4-5.51,4.71,0,6.28,3.06,6.28,6h-2.42c-0.08-2.17-1-3.95-4.15-3.95-2.25,0-3.62,1.29-3.62,3.22,0,1.57.85,2.21,3.54,3.42,3.3,1.49,5.47,2.9,5.47,6,0,3.3-2.25,6.2-7.25,6.2-4.47,0-6.84-2.54-6.76-6.48h2.42Z" transform="translate(-34.7 -24.27)"/><path class="cls-9" d="M433.84,171.87a12.64,12.64,0,0,0-.24,2.54c0,3.26,1.29,5.47,4.51,5.47,3.62,0,4.83-2.58,5.6-3.95h2.5c-0.89,2.13-2.9,6.08-8.41,6.08-4.79,0-6.68-3.3-6.68-7.57,0-5.8,3.14-13.44,10.06-13.44,4.63,0,6.48,3.18,6.48,7a18.57,18.57,0,0,1-.52,3.9H433.84Zm11.19-2a9.1,9.1,0,0,0,.2-1.89c0-3-1.37-4.87-4.39-4.87-3.5,0-5.72,3.22-6.6,6.76H445Z" transform="translate(-34.7 -24.27)"/><path class="cls-9" d="M462.66,171.87a12.64,12.64,0,0,0-.24,2.54c0,3.26,1.29,5.47,4.51,5.47,3.62,0,4.83-2.58,5.6-3.95H475c-0.89,2.13-2.9,6.08-8.41,6.08-4.79,0-6.68-3.3-6.68-7.57,0-5.8,3.14-13.44,10.06-13.44,4.63,0,6.48,3.18,6.48,7a18.57,18.57,0,0,1-.52,3.9H462.66Zm11.19-2a9.1,9.1,0,0,0,.2-1.89c0-3-1.37-4.87-4.39-4.87-3.5,0-5.72,3.22-6.6,6.76h10.79Z" transform="translate(-34.7 -24.27)"/><path class="cls-9" d="M481.66,161.37c1,9.3,1.57,15.74,1.69,17.83h0c0.72-1.73,3.94-7.81,9.42-17.83h2.66c-0.6,1.09-10.51,19.12-11.07,20.25h-3l-2.17-20.25h2.42Z" transform="translate(-34.7 -24.27)"/><path class="cls-9" d="M496.88,171.87a12.64,12.64,0,0,0-.24,2.54c0,3.26,1.29,5.47,4.51,5.47,3.62,0,4.83-2.58,5.6-3.95h2.5c-0.89,2.13-2.9,6.08-8.41,6.08-4.79,0-6.68-3.3-6.68-7.57,0-5.8,3.14-13.44,10.06-13.44,4.63,0,6.48,3.18,6.48,7a18.57,18.57,0,0,1-.52,3.9H496.88Zm11.19-2a9.1,9.1,0,0,0,.2-1.89c0-3-1.37-4.87-4.39-4.87-3.5,0-5.72,3.22-6.6,6.76h10.79Z" transform="translate(-34.7 -24.27)"/><path class="cls-9" d="M524.89,163.66c-4.47.28-7.16,3.22-8.13,7.89l-2.09,10.06h-2.46l2.82-13.4c0.68-3.18,1.13-5.51,1.37-6.84h2.33c0,0.48-.4,2.62-0.72,4.19a8.27,8.27,0,0,1,7.45-4.51Z" transform="translate(-34.7 -24.27)"/><path class="cls-9" d="M529.22,161.37c1.13,8.57,2.13,15.78,2.29,17.79h0c1-2.09,3.74-7.69,8.94-17.79h2.62l-11.19,21.58c-3.14,6-4.83,7.13-8.49,7.13a17.34,17.34,0,0,1-2.13-.24l0.44-2.25a10.54,10.54,0,0,0,2,.16c2.54,0,3.78-1.41,6-5.59l-2.9-20.77h2.46Z" transform="translate(-34.7 -24.27)"/><path class="cls-9" d="M557,161.37c0.52,9.18.85,15.38,0.85,17.55h0.08c1-2.42,2.62-5.59,8.53-17.55h2.54c0.56,11.79.72,15.34,0.68,17.39h0c0.89-2.17,3.22-6.68,8.49-17.39h2.58l-10.3,20.25h-2.78c-0.32-6.8-.6-14-0.64-17h-0.08c-1.21,3-4.39,9.22-8.21,17h-2.9l-1.33-20.25H557Z" transform="translate(-34.7 -24.27)"/><path class="cls-9" d="M582.42,171.87a12.64,12.64,0,0,0-.24,2.54c0,3.26,1.29,5.47,4.51,5.47,3.62,0,4.83-2.58,5.6-3.95h2.5c-0.89,2.13-2.9,6.08-8.41,6.08-4.79,0-6.68-3.3-6.68-7.57,0-5.8,3.14-13.44,10.06-13.44,4.63,0,6.48,3.18,6.48,7a18.57,18.57,0,0,1-.52,3.9H582.42Zm11.19-2a9.1,9.1,0,0,0,.2-1.89c0-3-1.37-4.87-4.39-4.87-3.5,0-5.72,3.22-6.6,6.76h10.79Z" transform="translate(-34.7 -24.27)"/><path class="cls-9" d="M604,152.27h2.46l-2.62,12.4a7.46,7.46,0,0,1,6.52-3.66c3.58,0,5.92,2.5,5.92,7,0,5.19-2.58,13.93-10.14,13.93-3.14,0-4.71-1.53-5.23-3.62-0.12.76-.56,2.54-0.76,3.26h-2.37c0.16-.85.64-2.9,1.21-5.51Zm9.7,16.14c0-3.58-1.65-5.19-4.11-5.19-4.11,0-6.48,4-7.33,8.05s-0.64,8.53,4,8.53C611.42,179.8,613.68,172.72,613.68,168.41Z" transform="translate(-34.7 -24.27)"/><path class="cls-9" d="M619.84,175.5c0.12,2.74,1.65,4.43,4.67,4.43,2.7,0,4.35-1.61,4.35-3.78,0-1.77-1-2.86-4-4.27-3.3-1.45-4.91-2.54-4.91-5.35,0-3,2.13-5.51,6.4-5.51,4.71,0,6.28,3.06,6.28,6h-2.42c-0.08-2.17-1-3.95-4.15-3.95-2.25,0-3.62,1.29-3.62,3.22,0,1.57.85,2.21,3.54,3.42,3.3,1.49,5.47,2.9,5.47,6,0,3.3-2.25,6.2-7.25,6.2-4.47,0-6.84-2.54-6.76-6.48h2.42Z" transform="translate(-34.7 -24.27)"/><path class="cls-9" d="M638.2,161.37h2.42l-4.27,20.25h-2.46Zm1.89-9.1h2.46l-0.85,4.11h-2.46Z" transform="translate(-34.7 -24.27)"/><path class="cls-9" d="M643.07,161.37h3.5l1.33-6h2.42l-1.33,6h4.35l-0.48,2.09h-4.31l-3,13.73c-0.4,1.81,0,2.62,1.69,2.62a8.88,8.88,0,0,0,2.29-.36l-0.4,2a7.45,7.45,0,0,1-2.66.48c-2.54,0-4.19-1-3.42-4.67l3-13.77h-3.5Z" transform="translate(-34.7 -24.27)"/><path class="cls-9" d="M654.69,171.87a12.64,12.64,0,0,0-.24,2.54c0,3.26,1.29,5.47,4.51,5.47,3.62,0,4.83-2.58,5.6-3.95H667c-0.89,2.13-2.9,6.08-8.41,6.08-4.79,0-6.68-3.3-6.68-7.57,0-5.8,3.14-13.44,10.06-13.44,4.63,0,6.48,3.18,6.48,7a18.57,18.57,0,0,1-.52,3.9H654.69Zm11.19-2a9.1,9.1,0,0,0,.2-1.89c0-3-1.37-4.87-4.39-4.87-3.5,0-5.72,3.22-6.6,6.76h10.79Z" transform="translate(-34.7 -24.27)"/><path class="cls-9" d="M683.42,167.73c0.89-4.27,1.13-5.64,1.29-6.36h2.42c-0.12.68-.36,2.09-0.64,3.38a7.05,7.05,0,0,1,6.4-3.74c3.54,0,6.12,2.38,5,7.73l-2.7,12.88H692.6L695.26,169c0.64-2.94.2-5.68-3.14-5.68-4,0-6,3.3-7,7.89l-2.17,10.43h-2.46Z" transform="translate(-34.7 -24.27)"/><path class="cls-9" d="M703.4,171.87a12.61,12.61,0,0,0-.24,2.54c0,3.26,1.29,5.47,4.51,5.47,3.62,0,4.83-2.58,5.6-3.95h2.5c-0.88,2.13-2.9,6.08-8.41,6.08-4.79,0-6.68-3.3-6.68-7.57,0-5.8,3.14-13.44,10.06-13.44,4.63,0,6.48,3.18,6.48,7a18.54,18.54,0,0,1-.52,3.9H703.4Zm11.19-2a9.06,9.06,0,0,0,.2-1.89c0-3-1.37-4.87-4.39-4.87-3.5,0-5.72,3.22-6.6,6.76h10.79Z" transform="translate(-34.7 -24.27)"/><path class="cls-9" d="M722.05,171.87a12.61,12.61,0,0,0-.24,2.54c0,3.26,1.29,5.47,4.51,5.47,3.62,0,4.83-2.58,5.6-3.95h2.5c-0.88,2.13-2.9,6.08-8.41,6.08-4.79,0-6.68-3.3-6.68-7.57,0-5.8,3.14-13.44,10.06-13.44,4.63,0,6.48,3.18,6.48,7a18.54,18.54,0,0,1-.52,3.9H722.05Zm11.19-2a9.06,9.06,0,0,0,.2-1.89c0-3-1.37-4.87-4.39-4.87-3.5,0-5.72,3.22-6.6,6.76h10.79Z" transform="translate(-34.7 -24.27)"/><path class="cls-9" d="M758.36,152.27l-5.11,24.19c-0.4,1.81-.84,4.07-1,5.15h-2.42c0-.48.24-1.73,0.56-3.26A6.77,6.77,0,0,1,744,182c-4.07,0-6-2.94-6-7.61,0-5.51,3.18-13.36,10.14-13.36,3.38,0,4.87,1.89,5.23,3.34l2.54-12.08h2.46ZM740.61,174c0,3.9,1.69,5.8,4.23,5.8,3.94,0,6-3.42,7.21-8.9s-0.56-7.69-4-7.69C742.94,163.22,740.61,169.78,740.61,174Z" transform="translate(-34.7 -24.27)"/><path class="cls-9" d="M759.58,175.5c0.12,2.74,1.65,4.43,4.67,4.43,2.7,0,4.35-1.61,4.35-3.78,0-1.77-1-2.86-4-4.27-3.3-1.45-4.91-2.54-4.91-5.35,0-3,2.13-5.51,6.4-5.51,4.71,0,6.28,3.06,6.28,6h-2.42c-0.08-2.17-1-3.95-4.15-3.95-2.25,0-3.62,1.29-3.62,3.22,0,1.57.85,2.21,3.54,3.42,3.3,1.49,5.47,2.9,5.47,6,0,3.3-2.25,6.2-7.25,6.2-4.47,0-6.84-2.54-6.76-6.48h2.42Z" transform="translate(-34.7 -24.27)"/><path class="cls-9" d="M797.86,177.11c-0.28,1.33-.76,3.54-0.89,4.51h-2.33a25.77,25.77,0,0,1,.52-2.94c-1,1.61-2.66,3.3-6.32,3.3a5,5,0,0,1-5.35-5.31c0-4,2.86-6.52,8.57-7a45.34,45.34,0,0,1,5-.2l0.28-1.33c0.56-2.58.16-5.07-3.82-5.07-3.22,0-4.27,1.73-4.91,3.66h-2.5c0.72-3,2.74-5.72,7.65-5.72,4.27,0,7.08,2,6,7.29Zm-1.21-5.67a31.6,31.6,0,0,0-4.47.16c-3.54.28-6.12,1.73-6.12,4.79a3.21,3.21,0,0,0,3.54,3.46c4.47,0,6-3.7,6.8-7.25Z" transform="translate(-34.7 -24.27)"/><path class="cls-9" d="M814.76,175.5c0.12,2.74,1.65,4.43,4.67,4.43,2.7,0,4.35-1.61,4.35-3.78,0-1.77-1-2.86-4-4.27-3.3-1.45-4.91-2.54-4.91-5.35,0-3,2.13-5.51,6.4-5.51,4.71,0,6.28,3.06,6.28,6h-2.42c-0.08-2.17-1-3.95-4.15-3.95-2.25,0-3.62,1.29-3.62,3.22,0,1.57.85,2.21,3.54,3.42,3.3,1.49,5.47,2.9,5.47,6,0,3.3-2.25,6.2-7.25,6.2-4.47,0-6.84-2.54-6.76-6.48h2.42Z" transform="translate(-34.7 -24.27)"/><path class="cls-9" d="M846.56,168.57c0,5.8-2.9,13.36-10.22,13.36-4.83,0-7-3.34-7-7.85,0-5.55,3.18-13.08,10.43-13.08C844.23,161,846.56,164,846.56,168.57Zm-14.65,5.35c0,3.34,1.25,5.88,4.71,5.88,5.19,0,7.41-6.44,7.41-11.11,0-3.42-1.45-5.51-4.67-5.51C834.25,163.18,831.91,169.42,831.91,173.93Z" transform="translate(-34.7 -24.27)"/><path class="cls-9" d="M848.05,181.61l6.2-29.34h2.46l-6.2,29.34h-2.46Z" transform="translate(-34.7 -24.27)"/><path class="cls-9" d="M860,161.37h2.42l-4.27,20.25h-2.46Zm1.89-9.1h2.46l-0.85,4.11H861Z" transform="translate(-34.7 -24.27)"/><path class="cls-9" d="M884.27,152.27l-5.11,24.19c-0.4,1.81-.84,4.07-1,5.15h-2.42c0-.48.24-1.73,0.56-3.26a6.77,6.77,0,0,1-6.36,3.62c-4.07,0-6-2.94-6-7.61,0-5.51,3.18-13.36,10.14-13.36,3.38,0,4.87,1.89,5.23,3.34l2.54-12.08h2.46ZM866.52,174c0,3.9,1.69,5.8,4.23,5.8,3.94,0,6-3.42,7.21-8.9s-0.56-7.69-4-7.69C868.85,163.22,866.52,169.78,866.52,174Z" transform="translate(-34.7 -24.27)"/><path class="cls-9" d="M894.29,181.61l3.82-18.15h-3.34l0.44-2.09h3.34l0.68-3.26c0.85-3.7,2.29-6.16,5.92-6.16a6.21,6.21,0,0,1,2.13.32l-0.52,2.13a6.35,6.35,0,0,0-1.73-.24c-2.13,0-2.94,1.69-3.42,4.11l-0.6,3.1h4.11l-0.48,2.09h-4.11l-3.82,18.15h-2.42Z" transform="translate(-34.7 -24.27)"/><path class="cls-9" d="M920.62,168.57c0,5.8-2.9,13.36-10.22,13.36-4.83,0-7-3.34-7-7.85,0-5.55,3.18-13.08,10.43-13.08C918.28,161,920.62,164,920.62,168.57ZM906,173.93c0,3.34,1.25,5.88,4.71,5.88,5.19,0,7.41-6.44,7.41-11.11,0-3.42-1.45-5.51-4.67-5.51C908.3,163.18,906,169.42,906,173.93Z" transform="translate(-34.7 -24.27)"/><path class="cls-9" d="M937.46,176c-0.48,2.38-.93,4.63-1.09,5.64H934c0.08-.56.36-2.29,0.6-3.42a7.16,7.16,0,0,1-6.44,3.78c-2.9,0-5.92-1.65-4.71-7.33l2.82-13.28h2.46l-2.74,12.8c-0.64,3.14-.32,5.55,3,5.55,3,0,5.6-2,6.76-7.41l2.38-10.95h2.5Z" transform="translate(-34.7 -24.27)"/><path class="cls-9" d="M944.36,167.73c0.89-4.27,1.13-5.64,1.29-6.36h2.42c-0.12.68-.36,2.09-0.64,3.38a7.05,7.05,0,0,1,6.4-3.74c3.54,0,6.12,2.38,5,7.73l-2.7,12.88h-2.54L956.2,169c0.64-2.94.2-5.68-3.14-5.68-4,0-6,3.3-7,7.89l-2.17,10.43h-2.46Z" transform="translate(-34.7 -24.27)"/><path class="cls-9" d="M982,152.27l-5.11,24.19c-0.4,1.81-.84,4.07-1,5.15h-2.42c0-.48.24-1.73,0.56-3.26a6.77,6.77,0,0,1-6.36,3.62c-4.07,0-6-2.94-6-7.61,0-5.51,3.18-13.36,10.14-13.36,3.38,0,4.87,1.89,5.23,3.34l2.54-12.08H982ZM964.23,174c0,3.9,1.69,5.8,4.23,5.8,3.94,0,6-3.42,7.21-8.9s-0.56-7.69-4-7.69C966.57,163.22,964.23,169.78,964.23,174Z" transform="translate(-34.7 -24.27)"/><path class="cls-9" d="M995.16,177.11c-0.28,1.33-.76,3.54-0.89,4.51h-2.33a25.77,25.77,0,0,1,.52-2.94c-1,1.61-2.66,3.3-6.32,3.3a5,5,0,0,1-5.35-5.31c0-4,2.86-6.52,8.57-7a45.34,45.34,0,0,1,5-.2l0.28-1.33c0.56-2.58.16-5.07-3.82-5.07-3.22,0-4.27,1.73-4.91,3.66h-2.5c0.72-3,2.74-5.72,7.65-5.72,4.27,0,7.08,2,6,7.29ZM994,171.43a31.6,31.6,0,0,0-4.47.16c-3.54.28-6.12,1.73-6.12,4.79a3.21,3.21,0,0,0,3.54,3.46c4.47,0,6-3.7,6.8-7.25Z" transform="translate(-34.7 -24.27)"/><path class="cls-9" d="M1000.44,161.37h3.5l1.33-6h2.42l-1.33,6h4.35l-0.48,2.09h-4.31l-3,13.73c-0.4,1.81,0,2.62,1.69,2.62a8.87,8.87,0,0,0,2.29-.36l-0.4,2a7.45,7.45,0,0,1-2.66.48c-2.54,0-4.19-1-3.42-4.67l3-13.77H1000Z" transform="translate(-34.7 -24.27)"/><path class="cls-9" d="M1013.45,161.37h2.42l-4.27,20.25h-2.46Zm1.89-9.1h2.46l-0.85,4.11h-2.46Z" transform="translate(-34.7 -24.27)"/><path class="cls-9" d="M1034.47,168.57c0,5.8-2.9,13.36-10.22,13.36-4.83,0-7-3.34-7-7.85,0-5.55,3.18-13.08,10.43-13.08C1032.14,161,1034.47,164,1034.47,168.57Zm-14.65,5.35c0,3.34,1.25,5.88,4.71,5.88,5.19,0,7.41-6.44,7.41-11.11,0-3.42-1.45-5.51-4.67-5.51C1022.16,163.18,1019.82,169.42,1019.82,173.93Z" transform="translate(-34.7 -24.27)"/><path class="cls-9" d="M1038.9,167.73c0.89-4.27,1.13-5.64,1.29-6.36h2.42c-0.12.68-.36,2.09-0.64,3.38a7.05,7.05,0,0,1,6.4-3.74c3.54,0,6.12,2.38,5,7.73l-2.7,12.88h-2.54l2.66-12.64c0.64-2.94.2-5.68-3.14-5.68-4,0-6,3.3-7,7.89l-2.17,10.43H1036Z" transform="translate(-34.7 -24.27)"/></svg>