<svg id="Layer_21" data-name="Layer 21" xmlns="http://www.w3.org/2000/svg" viewBox="0 0 1425.02 206.88"><defs><style>.cls-1{fill:#5b5c5c;}.cls-2{fill:#4a494a;}.cls-3{fill:#bababa;}.cls-4{fill:#0a4d59;}.cls-5{fill:#454545;}.cls-6,.cls-7,.cls-8{fill:none;stroke:#fff;}.cls-6,.cls-7{stroke-miterlimit:10;}.cls-7{stroke-width:2px;}.cls-8{stroke-linecap:round;stroke-linejoin:round;}</style></defs><title>logo</title><path class="cls-1" d="M277.54,132.4v47.06a10.76,10.76,0,0,1-7,10.06L232,204h0V148.56Z" transform="translate(-34.7 -24.27)"/><polygon class="cls-1" points="242.83 69.48 242.83 108.13 197.25 124.29 172.44 133.09 172.44 94.57 172.4 94.46 197.25 85.65 242.83 69.48"/><polygon class="cls-2" points="242.83 28.13 242.83 69.48 197.25 85.65 197.25 45.23 242.83 28.13"/><path class="cls-3" d="M277.54,52.4L232,69.5,156.29,97.9,76.76,68.06h0L35,52.4,147.42,25.51a27.07,27.07,0,0,1,12.34-.06Z" transform="translate(-34.7 -24.27)"/><path class="cls-4" d="M207.15,157.36l24.81-8.8V204h0l-69.19,26a18.42,18.42,0,0,1-13,0L76.59,202.49V147.14L107.25,158l43.51,15.43a16.53,16.53,0,0,0,11.06,0Z" transform="translate(-34.7 -24.27)"/><path class="cls-1" d="M232,69.5v40.42l-24.85,8.81L163.76,134.1a19.32,19.32,0,0,1-6.5,1.12l-1-37.32Z" transform="translate(-34.7 -24.27)"/><path class="cls-5" d="M157.26,135.22a19.32,19.32,0,0,0,6.5-1.12l43.35-15.37,0,0.11v38.52l-45.33,16.08a16.53,16.53,0,0,1-11.06,0L107.25,158l0.18-.52V118.84l0-.11,43.35,15.37A19.27,19.27,0,0,0,157.26,135.22Z" transform="translate(-34.7 -24.27)"/><path class="cls-1" d="M156.29,97.9l1,37.32a19.27,19.27,0,0,1-6.44-1.12l-43.35-15.37L76.59,107.78V68.5l0.17-.44Z" transform="translate(-34.7 -24.27)"/><polygon class="cls-1" points="72.76 94.46 72.72 94.57 72.72 133.22 72.54 133.74 41.88 122.87 41.88 122.86 0.33 108.13 0.33 69.13 1.33 69.13 41.88 83.51 72.76 94.46"/><polygon class="cls-5" points="42.05 43.78 42.05 43.79 41.88 44.23 41.88 83.51 1.33 69.13 0.33 69.13 0.33 28.13 42.05 43.78"/><path class="cls-1" d="M76.59,147.14v55.35L41.65,189.38A10.18,10.18,0,0,1,35,179.84V132.4l41.55,14.73h0Z" transform="translate(-34.7 -24.27)"/><line class="cls-6" x1="41.88" y1="122.86" x2="0.33" y2="108.13"/><path class="cls-6" d="M277.54,132.4L232,148.56l-24.81,8.8-45.33,16.08a16.53,16.53,0,0,1-11.06,0L107.25,158,76.59,147.14" transform="translate(-34.7 -24.27)"/><path class="cls-6" d="M278.54,93.4l-1,.35L232,109.92l-24.85,8.81L163.76,134.1a19.25,19.25,0,0,1-12.94,0l-43.35-15.37L76.59,107.78,36,93.4" transform="translate(-34.7 -24.27)"/><line class="cls-6" x1="197.25" y1="124.29" x2="197.25" y2="179.73"/><polyline class="cls-6" points="41.88 122.86 41.88 122.87 41.88 178.22"/><polyline class="cls-6" points="172.44 94.57 172.44 133.09 172.44 133.22"/><line class="cls-6" x1="72.72" y1="94.57" x2="72.72" y2="133.22"/><polyline class="cls-6" points="121.58 73.63 122.55 110.95 122.58 112.13"/><line class="cls-6" x1="197.25" y1="45.23" x2="197.25" y2="85.65"/><path class="cls-6" d="M35,52.4L147.42,25.51a27.07,27.07,0,0,1,12.34-.06l117.78,27" transform="translate(-34.7 -24.27)"/><line class="cls-6" x1="41.88" y1="44.23" x2="41.88" y2="83.51"/><path class="cls-7" d="M277.54,53.4l-117,41.48a12.78,12.78,0,0,1-8.55,0L35,53.4" transform="translate(-34.7 -24.27)"/><line class="cls-8" x1="15.33" y1="75.25" x2="15.33" y2="113.9"/><line class="cls-8" x1="228.33" y1="74.25" x2="228.33" y2="112.9"/><path class="cls-4" d="M429.42,145c-3.85,23.1-18.57,41.43-49.58,41.43-34.64,0-51.17-22-51.17-60.22,0-35.77,19.25-60.45,52.75-60.45,35.77,0,46.87,25.36,47.77,42.57H402.7c-1.59-11.55-7.25-21.73-21.74-21.73-17.89,0-25.13,15.85-25.13,38.72,0,28.07,9.06,40.53,24.68,40.53,14.26,0,19.25-9.06,22.41-20.83h26.49Z" transform="translate(-34.7 -24.27)"/><path class="cls-4" d="M547.87,124.36c0,34-15.62,62-54.34,62-39.17,0-53.43-29.66-53.43-61.36,0-29.43,16.53-59.32,54.79-59.32C530.89,65.72,547.87,92.21,547.87,124.36Zm-80.6.23c0,25.36,9.28,40.75,27.4,40.75,17.43,0,26.26-15.17,26.26-40.75,0-23.77-8.83-37.58-27.17-37.58C476.55,87,467.27,101.95,467.27,124.59Z" transform="translate(-34.7 -24.27)"/><path class="cls-4" d="M566.32,107.38c0-18.79,0-32.15-.45-39.4h26c0.45,5.21.68,12.68,0.68,21.51,4.53-11.32,15.62-23.32,36-23.55V93.12C603.9,93.34,593,103.76,593,130v54.34H566.32v-77Z" transform="translate(-34.7 -24.27)"/><path class="cls-4" d="M642,104.21c0-24-.23-31.24-0.45-36.23h26c0.45,2,.91,10.87.91,16.08,4.75-9.51,15.62-18.34,33.06-18.34,23.55,0,36.91,14.49,36.91,42.79v75.85H711.78V113.27c0-14.26-4.08-25.36-19.47-25.36-16.3,0-23.55,10.64-23.55,32.38v64.07H642V104.21Z" transform="translate(-34.7 -24.27)"/><path class="cls-4" d="M783.75,132.06c-0.23,17.21,6.79,33.28,25.13,33.28,15.62,0,20.38-10.19,22.19-15.62h26.26c-5,17.66-17.89,36.68-49.36,36.68-36.91,0-51.17-26.49-51.17-60.22,0-28.75,14.26-60.45,52.53-60.45,38,0,49.58,28.07,49.58,57.05,0,1.13-.23,7.7-0.45,9.28H783.75Zm49.13-18.11c-0.68-15.17-6.79-27.85-24-27.85-19.25,0-24,16.3-24.68,27.85h48.68Z" transform="translate(-34.7 -24.27)"/><path class="cls-4" d="M877.28,107.38c0-18.79,0-32.15-.45-39.4h26c0.45,5.21.68,12.68,0.68,21.51,4.53-11.32,15.62-23.32,36-23.55V93.12C914.86,93.34,904,103.76,904,130v54.34H877.28v-77Z" transform="translate(-34.7 -24.27)"/><path class="cls-4" d="M972.37,149.27c1.81,11.09,9.74,17.43,22.19,17.43s18.57-5.66,18.57-13.81c0-8.6-7-12.45-25.36-17.66-30.11-8.38-37.36-19-37.36-35.32,0-14.94,9.51-34.19,42.34-34.19,30.11,0,42.34,15.62,43.7,34.64h-26c-1.13-7.25-5.21-14.94-18.79-14.94-10,0-15.17,4.53-15.17,12.23,0,7,4.53,10.42,22.41,15.17,31,7.92,40.53,19,40.53,37.58,0,23.1-19,36-45.74,36-26.94,0-44.83-12.23-47.32-37.13h26Z" transform="translate(-34.7 -24.27)"/><path class="cls-4" d="M1045.38,68h17.21V35.61h26.49V68h21.73V89h-21.73v64.07c0,8.6,2,12.23,11.77,12.23a46.27,46.27,0,0,0,7.7-.68v18.79c-5.43,1.81-13.36,2.26-17.66,2.26-20.6,0-28.3-8.38-28.3-29.21V89h-17.21V68Z" transform="translate(-34.7 -24.27)"/><path class="cls-4" d="M1224.4,124.36c0,34-15.62,62-54.34,62-39.17,0-53.43-29.66-53.43-61.36,0-29.43,16.53-59.32,54.79-59.32C1207.42,65.72,1224.4,92.21,1224.4,124.36Zm-80.6.23c0,25.36,9.28,40.75,27.4,40.75,17.43,0,26.26-15.17,26.26-40.75,0-23.77-8.83-37.58-27.17-37.58C1153.08,87,1143.8,101.95,1143.8,124.59Z" transform="translate(-34.7 -24.27)"/><path class="cls-4" d="M1242.84,104.21c0-24-.23-31.24-0.45-36.23h26c0.45,2,.91,10.87.91,16.08,4.75-9.51,15.62-18.34,33.06-18.34,23.55,0,36.9,14.49,36.9,42.79v75.85h-26.72V113.27c0-14.26-4.08-25.36-19.47-25.36-16.3,0-23.55,10.64-23.55,32.38v64.07h-26.72V104.21Z" transform="translate(-34.7 -24.27)"/><path class="cls-4" d="M1384.55,132.06c-0.23,17.21,6.79,33.28,25.13,33.28,15.62,0,20.38-10.19,22.19-15.62h26.26c-5,17.66-17.89,36.68-49.36,36.68-36.9,0-51.17-26.49-51.17-60.22,0-28.75,14.27-60.45,52.53-60.45,38,0,49.58,28.07,49.58,57.05,0,1.13-.23,7.7-0.45,9.28h-74.72Zm49.13-18.11c-0.68-15.17-6.79-27.85-24-27.85-19.25,0-24,16.3-24.68,27.85h48.68Z" transform="translate(-34.7 -24.27)"/></svg>