<svg id="Layer_21" data-name="Layer 21" xmlns="http://www.w3.org/2000/svg" viewBox="0 0 1131.04 472.09"><defs><style>.cls-1{fill:#5b5c5c;}.cls-2{fill:#454545;}.cls-3{fill:#4a494a;}.cls-4{fill:#0a4d59;}.cls-5{fill:#bababa;}.cls-6{fill:#fff;}.cls-7{fill:none;stroke:#fff;stroke-linecap:round;stroke-linejoin:round;}.cls-8{fill:#757576;}</style></defs><title>logo-centered</title><polygon class="cls-1" points="686.27 69.48 686.27 108.13 640.7 124.29 615.89 133.09 615.89 94.57 615.86 94.46 640.7 85.65 686.27 69.48"/><polygon class="cls-2" points="485.32 44.23 485.32 83.51 444.77 69.13 443.77 69.13 443.77 28.13 485.5 43.78 485.5 43.79 485.32 44.23"/><path class="cls-1" d="M640.69,45.23V85.65l-24.88,8.81-43.36,15.37a19.32,19.32,0,0,1-6.5,1.12l-0.42-39.59Z" transform="translate(0 0)"/><polygon class="cls-3" points="686.27 28.13 686.27 69.48 640.7 85.65 640.7 45.23 686.27 28.13"/><path class="cls-1" d="M686.27,108.13v47.06a10.76,10.76,0,0,1-7,10.06l-38.61,14.49h0V124.29Z" transform="translate(0 0)"/><path class="cls-4" d="M571.51,205.7a18.45,18.45,0,0,1-13,0l-73.22-27.48V122.86l30.66,10.88,43.52,15.43a16.5,16.5,0,0,0,11,0l45.34-16.08,24.8-8.8v55.44h0Z" transform="translate(0 0)"/><path class="cls-1" d="M565,71.92l1,39a19.27,19.27,0,0,1-6.44-1.12L516.23,94.46,485.35,83.51V44.23l0.17-.44Z" transform="translate(0 0)"/><path class="cls-1" d="M485.32,122.86v55.36l-34.94-13.11a10.18,10.18,0,0,1-6.57-9.54V108.13Z" transform="translate(0 0)"/><path class="cls-5" d="M565,71.92L485.49,43.79h0L443.81,28.13,556.15,1.24a27.07,27.07,0,0,1,12.34-.06l117.78,27-45.58,17.1Z" transform="translate(0 0)"/><polygon class="cls-1" points="516.16 94.57 516.16 133.22 515.99 133.74 485.32 122.86 443.77 108.13 443.77 69.13 444.77 69.13 485.32 83.51 516.21 94.46 516.16 94.57"/><path class="cls-2" d="M566,111a19.32,19.32,0,0,0,6.5-1.12l43.32-15.39v38.63l-45.26,16.08a16.5,16.5,0,0,1-11,0L516,133.74l0.18-.52V94.46l43.35,15.37A19.27,19.27,0,0,0,566,111Z" transform="translate(0 0)"/><path class="cls-6" d="M565,150.61a17,17,0,0,1-5.67-1l-115.74-41,0.33-.94,115.74,41a16.05,16.05,0,0,0,10.67,0l115.72-41,0.33,0.94-115.72,41A17,17,0,0,1,565,150.61Z" transform="translate(0 0)"/><path class="cls-6" d="M566,111.45a19.75,19.75,0,0,1-6.64-1.15L485.11,84,444.64,69.6l0.33-.94L516.33,94l43.35,15.37a18.81,18.81,0,0,0,12.61,0L687.1,68.66l0.33,0.94-1,.35L572.62,110.3A19.76,19.76,0,0,1,566,111.45Z" transform="translate(0 0)"/><rect class="cls-6" x="640.19" y="124.29" width="1" height="55.44"/><rect class="cls-6" x="484.82" y="122.86" width="1" height="55.36"/><rect class="cls-6" x="615.39" y="94.57" width="1" height="38.65"/><rect class="cls-6" x="515.66" y="94.57" width="1" height="38.65"/><path class="cls-6" d="M566,111" transform="translate(0 0)"/><rect class="cls-6" x="640.19" y="45.23" width="1" height="40.42"/><path class="cls-6" d="M686.16,28.67l-117.78-27a26.69,26.69,0,0,0-12.11.06L443.93,28.62l-0.23-1L556,0.75A27.71,27.71,0,0,1,568.6.69l117.78,27Z" transform="translate(0 0)"/><rect class="cls-6" x="484.82" y="44.23" width="1" height="39.28"/><path class="cls-6" d="M565.54,72.35a13.8,13.8,0,0,1-4.61-.79l-117-41.48,0.67-1.88,117,41.48a11.82,11.82,0,0,0,7.88,0l117-41.49,0.67,1.88-117,41.49A13.78,13.78,0,0,1,565.54,72.35Z" transform="translate(0 0)"/><path class="cls-7" d="M565.53,113.9" transform="translate(0 0)"/><path class="cls-7" d="M565.53,75.25" transform="translate(0 0)"/><path class="cls-7" d="M565.53,112.9" transform="translate(0 0)"/><path class="cls-7" d="M565.53,74.25" transform="translate(0 0)"/><path class="cls-4" d="M100.75,342.53C96.9,365.63,82.18,384,51.17,384,16.53,384,0,362,0,323.74,0,288,19.25,263.29,52.75,263.29c35.77,0,46.87,25.36,47.77,42.57H74c-1.59-11.55-7.25-21.73-21.74-21.73-17.89,0-25.13,15.85-25.13,38.72,0,28.07,9.06,40.53,24.68,40.53,14.26,0,19.25-9.06,22.41-20.83h26.49v0Z" transform="translate(0 0)"/><path class="cls-4" d="M219.21,322c0,34-15.62,62-54.34,62-39.17,0-53.43-29.66-53.43-61.36,0-29.43,16.53-59.32,54.79-59.32C202.22,263.29,219.21,289.78,219.21,322Zm-80.6.23c0,25.36,9.28,40.75,27.4,40.75,17.43,0,26.26-15.17,26.26-40.75,0-23.77-8.83-37.58-27.17-37.58-17.22-.05-26.5,14.89-26.5,37.53v0.05Z" transform="translate(0 0)"/><path class="cls-4" d="M237.65,305c0-18.79,0-32.15-.45-39.4h26c0.45,5.21.68,12.68,0.68,21.51,4.53-11.32,15.62-23.32,36-23.55V290.7c-24.68.23-35.55,10.64-35.55,36.91V382H237.65V305Z" transform="translate(0 0)"/><path class="cls-4" d="M313.38,301.78c0-24-.23-31.24-0.45-36.23h26c0.45,2,.91,10.87.91,16.08,4.75-9.51,15.62-18.34,33.06-18.34,23.55,0,36.91,14.49,36.91,42.79V382H383.12V310.83c0-14.26-4.08-25.36-19.47-25.36-16.3,0-23.55,10.64-23.55,32.38V382H313.38V301.78Z" transform="translate(0 0)"/><path class="cls-4" d="M455.09,329.62c-0.23,17.21,6.79,33.28,25.13,33.28,15.62,0,20.38-10.19,22.19-15.62h26.26C523.69,365,510.81,384,479.31,384c-36.91,0-51.17-26.49-51.17-60.22,0-28.75,14.26-60.45,52.53-60.45,38,0,49.58,28.07,49.58,57,0,1.13-.23,7.7-0.45,9.28H455.09Zm49.13-18.11c-0.68-15.17-6.79-27.85-24-27.85-19.25,0-24,16.3-24.68,27.85h48.68Z" transform="translate(0 0)"/><path class="cls-4" d="M548.61,305c0-18.79,0-32.15-.45-39.4h26c0.45,5.21.68,12.68,0.68,21.51,4.53-11.32,15.62-23.32,36-23.55V290.7c-24.68.23-35.55,10.64-35.55,36.91V382H548.61V305Z" transform="translate(0 0)"/><path class="cls-4" d="M643.7,346.83c1.81,11.09,9.74,17.43,22.19,17.43s18.57-5.66,18.57-13.81c0-8.6-7-12.45-25.36-17.66-30.11-8.38-37.36-19-37.36-35.32,0-14.94,9.51-34.19,42.34-34.19,30.11,0,42.34,15.62,43.7,34.64h-26C680.65,290.67,676.57,283,663,283c-10,0-15.17,4.53-15.17,12.23,0,7,4.53,10.42,22.41,15.17,31,7.92,40.53,19,40.53,37.58,0,23.1-19,36-45.74,36-26.94,0-44.83-12.23-47.32-37.13h26Z" transform="translate(0 0)"/><path class="cls-4" d="M716.71,265.55h17.21V233.17h26.49v32.38h21.73v21.06H760.41v64.07c0,8.6,2,12.23,11.77,12.23a46.27,46.27,0,0,0,7.7-.68V381c-5.43,1.81-13.36,2.26-17.66,2.26-20.6,0-28.3-8.38-28.3-29.21V286.61H716.71V265.55Z" transform="translate(0 0)"/><path class="cls-4" d="M895.73,322c0,34-15.62,62-54.34,62C802.22,384,788,354.31,788,322.61c0-29.43,16.53-59.32,54.79-59.32C878.75,263.29,895.73,289.78,895.73,322Zm-80.6.23c0,25.36,9.28,40.75,27.4,40.75,17.43,0,26.26-15.17,26.26-40.75,0-23.77-8.83-37.58-27.17-37.58-17.21-.05-26.49,14.89-26.49,37.53v0.05Z" transform="translate(0 0)"/><path class="cls-4" d="M914.18,301.78c0-24-.23-31.24-0.45-36.23h26c0.45,2,.91,10.87.91,16.08,4.75-9.51,15.62-18.34,33.06-18.34,23.55,0,36.9,14.49,36.9,42.79V382H983.91V310.83c0-14.26-4.08-25.36-19.47-25.36-16.3,0-23.55,10.64-23.55,32.38V382H914.17V301.78h0Z" transform="translate(0 0)"/><path class="cls-4" d="M1055.88,329.62c-0.23,17.21,6.79,33.28,25.13,33.28,15.62,0,20.38-10.19,22.19-15.62h26.26c-5,17.66-17.89,36.68-49.36,36.68-36.9,0-51.17-26.49-51.17-60.22,0-28.75,14.27-60.45,52.53-60.45,38,0,49.58,28.07,49.58,57,0,1.13-.23,7.7-0.45,9.28h-74.71ZM1105,311.51c-0.68-15.17-6.79-27.85-24-27.85-19.25,0-24,16.3-24.68,27.85H1105Z" transform="translate(0 0)"/><path class="cls-8" d="M75.56,420.74H78.9l-3.55,16.84a10.14,10.14,0,0,1,8.86-5c4.87,0,8,3.39,8,9.57,0,7.06-3.5,18.92-13.78,18.92-4.27,0-6.4-2.08-7.11-4.92-0.16,1-.77,3.45-1,4.43H67.09c0.22-1.15.87-3.94,1.64-7.49Zm13.18,21.93c0-4.87-2.24-7-5.58-7-5.58,0-8.8,5.47-10,10.94s-0.87,11.59,5.41,11.59C85.68,458.15,88.74,448.52,88.74,442.67Z" transform="translate(0 0)"/><path class="cls-8" d="M98.92,447.37a17.18,17.18,0,0,0-.33,3.45c0,4.43,1.75,7.44,6.12,7.44,4.92,0,6.56-3.5,7.6-5.36h3.39c-1.2,2.9-3.94,8.26-11.43,8.26-6.51,0-9.08-4.48-9.08-10.28,0-7.87,4.27-18.26,13.67-18.26,6.29,0,8.8,4.32,8.8,9.46a25.23,25.23,0,0,1-.71,5.3h-18Zm15.2-2.68a12.36,12.36,0,0,0,.27-2.57c0-4.1-1.86-6.62-6-6.62-4.76,0-7.77,4.37-9,9.19h14.73Z" transform="translate(0 0)"/><path class="cls-8" d="M141.25,452.52c-1.91,5.3-5.69,8.75-11.81,8.75s-8.91-4.16-8.91-10.34c0-7.66,4.27-18.32,13.84-18.32,6.34,0,8.91,4.21,8.64,9.3h-3.34c0-2.84-.82-6.34-5.74-6.34-6.56,0-9.9,8.8-9.9,15.09,0,5,2.13,7.66,6.07,7.66,3.55,0,6-1.91,7.77-5.8h3.38Z" transform="translate(0 0)"/><path class="cls-8" d="M163.81,454.48c-0.38,1.81-1,4.81-1.2,6.13h-3.17a35.16,35.16,0,0,1,.71-4c-1.31,2.19-3.61,4.48-8.59,4.48-5.25,0-7.27-3.66-7.27-7.22,0-5.41,3.88-8.86,11.65-9.52a61.59,61.59,0,0,1,6.84-.27l0.38-1.8c0.77-3.5.22-6.89-5.19-6.89-4.37,0-5.8,2.35-6.67,5h-3.39c1-4,3.72-7.77,10.39-7.77,5.8,0,9.62,2.68,8.09,9.9Zm-1.64-7.71a42.94,42.94,0,0,0-6.07.22c-4.81.38-8.31,2.35-8.31,6.51,0,2.62,1.48,4.7,4.81,4.7,6.07,0,8.2-5,9.24-9.84Z" transform="translate(0 0)"/><path class="cls-8" d="M190.31,453c-0.66,3.23-1.26,6.29-1.48,7.66h-3.28c0.11-.77.49-3.12,0.82-4.65a9.73,9.73,0,0,1-8.75,5.14c-3.94,0-8-2.24-6.4-10l3.83-18h3.34l-3.72,17.39c-0.88,4.27-.44,7.55,4,7.55,4.1,0,7.6-2.73,9.19-10.06l3.23-14.87h3.39Z" transform="translate(0 0)"/><path class="cls-8" d="M198.54,452.3c0.16,3.72,2.24,6,6.34,6,3.66,0,5.91-2.19,5.91-5.14,0-2.41-1.31-3.88-5.47-5.8-4.48-2-6.67-3.45-6.67-7.27,0-4,2.9-7.49,8.69-7.49,6.4,0,8.53,4.16,8.53,8.2h-3.28c-0.11-3-1.37-5.36-5.63-5.36-3.06,0-4.92,1.75-4.92,4.38,0,2.13,1.15,3,4.81,4.65,4.48,2,7.44,3.94,7.44,8.2,0,4.48-3.06,8.42-9.84,8.42-6.07,0-9.3-3.45-9.19-8.8h3.28Z" transform="translate(0 0)"/><path class="cls-8" d="M222,447.37a17.18,17.18,0,0,0-.33,3.45c0,4.43,1.75,7.44,6.12,7.44,4.92,0,6.56-3.5,7.6-5.36h3.41c-1.2,2.9-3.94,8.26-11.43,8.26-6.51,0-9.08-4.48-9.08-10.28,0-7.87,4.27-18.26,13.67-18.26,6.29,0,8.8,4.32,8.8,9.46a25.23,25.23,0,0,1-.71,5.3H222Zm15.2-2.68a12.36,12.36,0,0,0,.27-2.57c0-4.1-1.86-6.62-6-6.62-4.76,0-7.77,4.37-9,9.19h14.73Z" transform="translate(0 0)"/><path class="cls-8" d="M261.15,447.37a17.18,17.18,0,0,0-.33,3.45c0,4.43,1.75,7.44,6.12,7.44,4.92,0,6.56-3.5,7.6-5.36h3.39c-1.2,2.9-3.94,8.26-11.43,8.26-6.51,0-9.08-4.48-9.08-10.28,0-7.87,4.27-18.26,13.67-18.26,6.29,0,8.8,4.32,8.8,9.46a25.23,25.23,0,0,1-.71,5.3h-18Zm15.2-2.68a12.36,12.36,0,0,0,.27-2.57c0-4.1-1.86-6.62-6-6.62-4.76,0-7.77,4.37-9,9.19h14.73Z" transform="translate(0 0)"/><path class="cls-8" d="M287,433.1c1.37,12.63,2.13,21.38,2.3,24.23h0c1-2.35,5.36-10.61,12.8-24.23h3.61c-0.82,1.48-14.27,26-15,27.51h-4l-3-27.51H287Z" transform="translate(0 0)"/><path class="cls-8" d="M307.64,447.37a17.18,17.18,0,0,0-.33,3.45c0,4.43,1.75,7.44,6.12,7.44,4.92,0,6.56-3.5,7.6-5.36h3.39c-1.2,2.9-3.94,8.26-11.43,8.26-6.51,0-9.08-4.48-9.08-10.28,0-7.87,4.27-18.26,13.67-18.26,6.29,0,8.8,4.32,8.8,9.46a25.23,25.23,0,0,1-.71,5.3h-18Zm15.2-2.68a12.36,12.36,0,0,0,.27-2.57c0-4.1-1.86-6.62-6-6.62-4.76,0-7.77,4.37-9,9.19h14.73Z" transform="translate(0 0)"/><path class="cls-8" d="M345.69,436.22c-6.07.38-9.73,4.38-11,10.72l-2.88,13.67h-3.34l3.83-18.21c0.93-4.32,1.53-7.49,1.86-9.3h3.17c-0.06.66-.55,3.55-1,5.69a11.24,11.24,0,0,1,10.12-6.13Z" transform="translate(0 0)"/><path class="cls-8" d="M351.58,433.1c1.53,11.65,2.9,21.44,3.12,24.17h0.06c1.31-2.84,5.09-10.45,12.14-24.17h3.55l-15.2,29.31c-4.27,8.2-6.56,9.68-11.54,9.68a23.56,23.56,0,0,1-2.9-.33l0.6-3.06a14.32,14.32,0,0,0,2.68.22c3.45,0,5.14-1.91,8.09-7.6l-3.94-28.22h3.34Z" transform="translate(0 0)"/><path class="cls-8" d="M389.25,433.1c0.71,12.47,1.15,20.89,1.15,23.84h0.11c1.37-3.28,3.55-7.6,11.59-23.84h3.45c0.77,16,1,20.83.93,23.62h0.06c1.2-3,4.37-9.08,11.54-23.62h3.5l-14,27.51h-3.77c-0.44-9.24-.82-19-0.87-23.13h-0.13c-1.64,4.1-6,12.52-11.16,23.13h-3.94l-1.8-27.51h3.34Z" transform="translate(0 0)"/><path class="cls-8" d="M423.81,447.37a17.18,17.18,0,0,0-.33,3.45c0,4.43,1.75,7.44,6.12,7.44,4.92,0,6.56-3.5,7.6-5.36h3.39c-1.2,2.9-3.94,8.26-11.43,8.26-6.51,0-9.08-4.48-9.08-10.28,0-7.87,4.27-18.26,13.67-18.26,6.29,0,8.8,4.32,8.8,9.46a25.23,25.23,0,0,1-.71,5.3h-18Zm15.2-2.68a12.36,12.36,0,0,0,.27-2.57c0-4.1-1.86-6.62-6-6.62-4.76,0-7.77,4.37-9,9.19H439Z" transform="translate(0 0)"/><path class="cls-8" d="M453.14,420.74h3.34l-3.55,16.84a10.14,10.14,0,0,1,8.86-5c4.87,0,8,3.39,8,9.57,0,7.06-3.5,18.92-13.78,18.92-4.27,0-6.4-2.08-7.11-4.92-0.16,1-.77,3.45-1,4.43h-3.23c0.22-1.15.87-3.94,1.64-7.49Zm13.17,21.93c0-4.87-2.24-7-5.58-7-5.58,0-8.8,5.47-10,10.94s-0.87,11.59,5.41,11.59C463.25,458.15,466.31,448.52,466.31,442.67Z" transform="translate(0 0)"/><path class="cls-8" d="M474.69,452.3c0.16,3.72,2.24,6,6.34,6,3.66,0,5.91-2.19,5.91-5.14,0-2.41-1.31-3.88-5.47-5.8-4.48-2-6.67-3.45-6.67-7.27,0-4,2.9-7.49,8.7-7.49,6.4,0,8.53,4.16,8.53,8.2h-3.28c-0.11-3-1.37-5.36-5.63-5.36-3.06,0-4.92,1.75-4.92,4.38,0,2.13,1.15,3,4.81,4.65,4.48,2,7.44,3.94,7.44,8.2,0,4.48-3.06,8.42-9.84,8.42-6.07,0-9.3-3.45-9.19-8.8h3.27Z" transform="translate(0 0)"/><path class="cls-8" d="M499.63,433.1h3.28l-5.8,27.51h-3.3Zm2.57-12.36h3.34l-1.15,5.58H501Z" transform="translate(0 0)"/><path class="cls-8" d="M506.25,433.1H511l1.8-8.2h3.28l-1.8,8.2h5.91L519.54,436h-5.85l-4,18.65c-0.55,2.46-.06,3.55,2.3,3.55a12.06,12.06,0,0,0,3.12-.49l-0.55,2.68A10.12,10.12,0,0,1,511,461c-3.45,0-5.69-1.31-4.65-6.34l4.1-18.7h-4.76Z" transform="translate(0 0)"/><path class="cls-8" d="M522,447.37a17.18,17.18,0,0,0-.33,3.45c0,4.43,1.75,7.44,6.12,7.44,4.92,0,6.56-3.5,7.6-5.36h3.39c-1.2,2.9-3.94,8.26-11.43,8.26-6.51,0-9.08-4.48-9.08-10.28,0-7.87,4.27-18.26,13.67-18.26,6.29,0,8.8,4.32,8.8,9.46a25.23,25.23,0,0,1-.71,5.3H522Zm15.2-2.68a12.36,12.36,0,0,0,.27-2.57c0-4.1-1.86-6.62-6-6.62-4.76,0-7.77,4.37-9,9.19h14.73Z" transform="translate(0 0)"/><path class="cls-8" d="M561.07,441.74c1.2-5.8,1.53-7.66,1.75-8.64h3.28c-0.16.93-.49,2.84-0.87,4.59a9.58,9.58,0,0,1,8.69-5.09c4.81,0,8.31,3.23,6.73,10.5L577,460.6h-3.44l3.61-17.17c0.88-4,.27-7.71-4.27-7.71-5.41,0-8.2,4.48-9.52,10.72l-3,14.16H557Z" transform="translate(0 0)"/><path class="cls-8" d="M588.2,447.37a17.13,17.13,0,0,0-.33,3.45c0,4.43,1.75,7.44,6.12,7.44,4.92,0,6.56-3.5,7.6-5.36H605c-1.2,2.9-3.94,8.26-11.43,8.26-6.51,0-9.08-4.48-9.08-10.28,0-7.87,4.27-18.26,13.67-18.26,6.29,0,8.8,4.32,8.8,9.46a25.19,25.19,0,0,1-.71,5.3h-18Zm15.2-2.68a12.31,12.31,0,0,0,.27-2.57c0-4.1-1.86-6.62-6-6.62-4.76,0-7.77,4.37-9,9.19H603.4Z" transform="translate(0 0)"/><path class="cls-8" d="M613.55,447.37a17.13,17.13,0,0,0-.33,3.45c0,4.43,1.75,7.44,6.12,7.44,4.92,0,6.56-3.5,7.6-5.36h3.39c-1.2,2.9-3.94,8.26-11.43,8.26-6.51,0-9.08-4.48-9.08-10.28,0-7.87,4.27-18.26,13.67-18.26,6.29,0,8.8,4.32,8.8,9.46a25.19,25.19,0,0,1-.71,5.3h-18Zm15.2-2.68a12.31,12.31,0,0,0,.27-2.57c0-4.1-1.86-6.62-6-6.62-4.76,0-7.77,4.37-9,9.19h14.73Z" transform="translate(0 0)"/><path class="cls-8" d="M662.87,420.74l-7,32.87c-0.55,2.46-1.15,5.52-1.37,7h-3.28a45,45,0,0,1,.77-4.43,9.2,9.2,0,0,1-8.64,4.92c-5.52,0-8.2-4-8.2-10.33,0-7.49,4.32-18.16,13.78-18.16,4.59,0,6.62,2.57,7.11,4.54l3.45-16.4h3.33Zm-24.11,29.53c0,5.3,2.3,7.87,5.74,7.87,5.36,0,8.15-4.65,9.79-12.08s-0.77-10.45-5.47-10.45C641.93,435.62,638.76,444.53,638.76,450.27Z" transform="translate(0 0)"/><path class="cls-8" d="M664.54,452.3c0.16,3.72,2.24,6,6.34,6,3.66,0,5.91-2.19,5.91-5.14,0-2.41-1.31-3.88-5.47-5.8-4.48-2-6.67-3.45-6.67-7.27,0-4,2.9-7.49,8.7-7.49,6.4,0,8.53,4.16,8.53,8.2H678.6c-0.11-3-1.37-5.36-5.63-5.36-3.06,0-4.92,1.75-4.92,4.38,0,2.13,1.15,3,4.81,4.65,4.48,2,7.44,3.94,7.44,8.2,0,4.48-3.06,8.42-9.84,8.42-6.07,0-9.3-3.45-9.19-8.8h3.27Z" transform="translate(0 0)"/><path class="cls-8" d="M716.54,454.48c-0.38,1.81-1,4.81-1.2,6.13h-3.17a35,35,0,0,1,.71-4c-1.31,2.19-3.61,4.48-8.59,4.48-5.25,0-7.27-3.66-7.27-7.22,0-5.41,3.88-8.86,11.65-9.52a61.59,61.59,0,0,1,6.84-.27l0.38-1.8c0.77-3.5.22-6.89-5.2-6.89-4.37,0-5.8,2.35-6.67,5h-3.39c1-4,3.72-7.77,10.39-7.77,5.8,0,9.62,2.68,8.09,9.9Zm-1.64-7.71a42.94,42.94,0,0,0-6.09.2c-4.81.38-8.31,2.35-8.31,6.51,0,2.62,1.48,4.7,4.81,4.7,6.07,0,8.2-5,9.24-9.84Z" transform="translate(0 0)"/><path class="cls-8" d="M739.5,452.3c0.16,3.72,2.24,6,6.34,6,3.66,0,5.91-2.19,5.91-5.14,0-2.41-1.31-3.88-5.47-5.8-4.48-2-6.67-3.45-6.67-7.27,0-4,2.9-7.49,8.7-7.49,6.4,0,8.53,4.16,8.53,8.2h-3.28c-0.11-3-1.37-5.36-5.63-5.36-3.06,0-4.92,1.75-4.92,4.38,0,2.13,1.15,3,4.81,4.65,4.48,2,7.44,3.94,7.44,8.2,0,4.48-3.06,8.42-9.84,8.42-6.07,0-9.3-3.45-9.19-8.8h3.27Z" transform="translate(0 0)"/><path class="cls-8" d="M782.7,442.89c0,7.88-3.94,18.16-13.89,18.16-6.56,0-9.57-4.54-9.57-10.66,0-7.55,4.32-17.77,14.16-17.77C779.53,432.61,782.7,436.71,782.7,442.89Zm-19.89,7.27c0,4.54,1.69,8,6.4,8,7,0,10.06-8.75,10.06-15.09,0-4.65-2-7.49-6.34-7.49C766,435.56,762.81,444,762.81,450.16Z" transform="translate(0 0)"/><path class="cls-8" d="M784.72,460.61l8.42-39.86h3.34l-8.42,39.86h-3.34Z" transform="translate(0 0)"/><path class="cls-8" d="M800.91,433.1h3.28l-5.8,27.51H795Zm2.57-12.36h3.33l-1.15,5.58h-3.34Z" transform="translate(0 0)"/><path class="cls-8" d="M833.93,420.74l-7,32.87c-0.55,2.46-1.15,5.52-1.37,7h-3.28a45,45,0,0,1,.77-4.43,9.2,9.2,0,0,1-8.64,4.92c-5.52,0-8.2-4-8.2-10.33,0-7.49,4.32-18.16,13.78-18.16,4.59,0,6.62,2.57,7.11,4.54l3.45-16.4h3.33Zm-24.12,29.53c0,5.3,2.3,7.87,5.74,7.87,5.36,0,8.15-4.65,9.79-12.08s-0.77-10.45-5.47-10.45C813,435.62,809.81,444.53,809.81,450.27Z" transform="translate(0 0)"/><path class="cls-8" d="M847.54,460.61L852.73,436h-4.54l0.6-2.84h4.54l0.93-4.43c1.15-5,3.12-8.37,8-8.37a8.44,8.44,0,0,1,2.9.44l-0.71,2.9a8.63,8.63,0,0,0-2.35-.33c-2.9,0-4,2.3-4.65,5.58l-0.82,4.21h5.58L861.55,436H856l-5.16,24.66h-3.27Z" transform="translate(0 0)"/><path class="cls-8" d="M883.3,442.89c0,7.88-3.94,18.16-13.89,18.16-6.56,0-9.57-4.54-9.57-10.66,0-7.55,4.32-17.77,14.16-17.77C880.13,432.61,883.3,436.71,883.3,442.89Zm-19.9,7.27c0,4.54,1.69,8,6.4,8,7.05,0,10.06-8.75,10.06-15.09,0-4.65-2-7.49-6.34-7.49C866.57,435.56,863.4,444,863.4,450.16Z" transform="translate(0 0)"/><path class="cls-8" d="M906.18,453c-0.66,3.23-1.26,6.29-1.48,7.66h-3.28c0.11-.77.49-3.12,0.82-4.65a9.73,9.73,0,0,1-8.75,5.14c-3.94,0-8-2.24-6.4-10l3.83-18h3.34l-3.72,17.39c-0.87,4.27-.44,7.55,4,7.55,4.1,0,7.6-2.73,9.19-10.06L907,433.13h3.39Z" transform="translate(0 0)"/><path class="cls-8" d="M915.57,441.74c1.2-5.8,1.53-7.66,1.75-8.64h3.28c-0.16.93-.49,2.84-0.88,4.59a9.58,9.58,0,0,1,8.7-5.09c4.81,0,8.31,3.23,6.73,10.5l-3.66,17.5H928l3.61-17.17c0.88-4,.27-7.71-4.27-7.71-5.41,0-8.2,4.48-9.52,10.72l-3,14.16h-3.34Z" transform="translate(0 0)"/><path class="cls-8" d="M966.68,420.74l-6.95,32.87c-0.55,2.46-1.15,5.52-1.37,7h-3.28a45,45,0,0,1,.77-4.43,9.2,9.2,0,0,1-8.64,4.92c-5.52,0-8.2-4-8.2-10.33,0-7.49,4.32-18.16,13.78-18.16,4.59,0,6.62,2.57,7.11,4.54l3.45-16.4h3.33Zm-24.12,29.53c0,5.3,2.3,7.87,5.74,7.87,5.36,0,8.15-4.65,9.79-12.08s-0.77-10.45-5.47-10.45C945.73,435.62,942.56,444.53,942.56,450.27Z" transform="translate(0 0)"/><path class="cls-8" d="M984.58,454.48c-0.38,1.81-1,4.81-1.2,6.13h-3.17a35,35,0,0,1,.71-4c-1.31,2.19-3.61,4.48-8.59,4.48-5.25,0-7.27-3.66-7.27-7.22,0-5.41,3.88-8.86,11.65-9.52a61.59,61.59,0,0,1,6.84-.27l0.38-1.8c0.77-3.5.22-6.89-5.2-6.89-4.37,0-5.8,2.35-6.67,5h-3.39c1-4,3.72-7.77,10.39-7.77,5.8,0,9.62,2.68,8.09,9.9Zm-1.64-7.71a42.93,42.93,0,0,0-6.07.22c-4.81.38-8.31,2.35-8.31,6.51,0,2.62,1.48,4.7,4.81,4.7,6.07,0,8.2-5,9.24-9.84Z" transform="translate(0 0)"/><path class="cls-8" d="M991.75,433.1h4.76l1.81-8.2h3.28l-1.81,8.2h5.91l-0.66,2.84h-5.85l-4,18.65c-0.55,2.46-.05,3.55,2.3,3.55a12.05,12.05,0,0,0,3.12-.49l-0.55,2.68a10.12,10.12,0,0,1-3.61.66c-3.45,0-5.69-1.31-4.65-6.34l4-18.68H991Z" transform="translate(0 0)"/><path class="cls-8" d="M1009.42,433.1h3.28l-5.8,27.51h-3.34Zm2.57-12.36h3.34l-1.15,5.58h-3.37Z" transform="translate(0 0)"/><path class="cls-8" d="M1038,442.89c0,7.88-3.94,18.16-13.89,18.16-6.56,0-9.57-4.54-9.57-10.66,0-7.55,4.32-17.77,14.16-17.77C1034.81,432.61,1038,436.71,1038,442.89Zm-19.9,7.27c0,4.54,1.69,8,6.4,8,7.05,0,10.06-8.75,10.06-15.09,0-4.65-2-7.49-6.34-7.49-7,0-10.13,8.46-10.13,14.58h0Z" transform="translate(0 0)"/><path class="cls-8" d="M1044,441.74c1.2-5.8,1.53-7.66,1.75-8.64H1049c-0.16.93-.49,2.84-0.88,4.59a9.58,9.58,0,0,1,8.7-5.09c4.81,0,8.31,3.23,6.73,10.5l-3.66,17.5h-3.44l3.61-17.17c0.88-4,.27-7.71-4.27-7.71-5.41,0-8.2,4.48-9.52,10.72l-3,14.16H1040Z" transform="translate(0 0)"/><g id="Layer_2" data-name="Layer 2"><rect class="cls-6" x="565.03" y="71.36" width="1" height="39.58"/></g></svg>