<?xml version="1.0" encoding="utf-8"?>
<!-- Generator: Adobe Illustrator 19.2.0, SVG Export Plug-In . SVG Version: 6.00 Build 0)  -->
<svg version="1.1" id="Layer_1" xmlns="http://www.w3.org/2000/svg" xmlns:xlink="http://www.w3.org/1999/xlink" x="0px" y="0px"
	 viewBox="0 0 262.3 51.9" style="enable-background:new 0 0 262.3 51.9;" xml:space="preserve">
<style type="text/css">
	.st0{fill:#0A4D59;}
</style>
<g>
	<path class="st0" d="M33.7,31.2c-0.8,4.9-3.9,8.8-10.5,8.8c-7.3,0-10.8-4.7-10.8-12.8c0-7.6,4.1-12.8,11.2-12.8
		c7.6,0,9.9,5.4,10.1,9H28c-0.3-2.4-1.5-4.6-4.6-4.6c-3.8,0-5.3,3.4-5.3,8.2c0,5.9,1.9,8.6,5.2,8.6c3,0,4.1-1.9,4.7-4.4H33.7z"/>
	<path class="st0" d="M58.8,26.8C58.8,34,55.5,40,47.3,40C39,40,36,33.7,36,27c0-6.2,3.5-12.6,11.6-12.6
		C55.2,14.4,58.8,20,58.8,26.8z M41.7,26.9c0,5.4,2,8.6,5.8,8.6c3.7,0,5.6-3.2,5.6-8.6c0-5-1.9-8-5.8-8
		C43.7,18.9,41.7,22.1,41.7,26.9z"/>
	<path class="st0" d="M62.7,23.2c0-4,0-6.8-0.1-8.3h5.5c0.1,1.1,0.1,2.7,0.1,4.6c1-2.4,3.3-4.9,7.6-5v5.8c-5.2,0-7.5,2.3-7.5,7.8
		v11.5h-5.7V23.2z"/>
	<path class="st0" d="M78.7,22.6c0-5.1,0-6.6-0.1-7.7h5.5c0.1,0.4,0.2,2.3,0.2,3.4c1-2,3.3-3.9,7-3.9c5,0,7.8,3.1,7.8,9.1v16.1h-5.7
		V24.5c0-3-0.9-5.4-4.1-5.4c-3.5,0-5,2.3-5,6.9v13.6h-5.7V22.6z"/>
	<path class="st0" d="M108.8,28.5c0,3.6,1.4,7.1,5.3,7.1c3.3,0,4.3-2.2,4.7-3.3h5.6c-1.1,3.7-3.8,7.8-10.5,7.8
		c-7.8,0-10.8-5.6-10.8-12.8c0-6.1,3-12.8,11.1-12.8c8.1,0,10.5,5.9,10.5,12.1c0,0.2,0,1.6-0.1,2H108.8z M119.2,24.6
		c-0.1-3.2-1.4-5.9-5.1-5.9c-4.1,0-5.1,3.5-5.2,5.9H119.2z"/>
	<path class="st0" d="M128.6,23.2c0-4,0-6.8-0.1-8.3h5.5c0.1,1.1,0.1,2.7,0.1,4.6c1-2.4,3.3-4.9,7.6-5v5.8c-5.2,0-7.5,2.3-7.5,7.8
		v11.5h-5.7V23.2z"/>
	<path class="st0" d="M148.7,32.1c0.4,2.4,2.1,3.7,4.7,3.7c2.6,0,3.9-1.2,3.9-2.9c0-1.8-1.5-2.6-5.4-3.7c-6.4-1.8-7.9-4-7.9-7.5
		c0-3.2,2-7.2,9-7.2c6.4,0,9,3.3,9.3,7.3h-5.5c-0.2-1.5-1.1-3.2-4-3.2c-2.1,0-3.2,1-3.2,2.6c0,1.5,1,2.2,4.7,3.2
		c6.6,1.7,8.6,4,8.6,8c0,4.9-4,7.6-9.7,7.6c-5.7,0-9.5-2.6-10-7.9H148.7z"/>
	<path class="st0" d="M164.2,14.9h3.6V8h5.6v6.9h4.6v4.5h-4.6v13.6c0,1.8,0.4,2.6,2.5,2.6c0.6,0,1,0,1.6-0.1v4
		c-1.2,0.4-2.8,0.5-3.7,0.5c-4.4,0-6-1.8-6-6.2V19.4h-3.6V14.9z"/>
	<path class="st0" d="M202.2,26.8c0,7.2-3.3,13.1-11.5,13.1c-8.3,0-11.3-6.3-11.3-13c0-6.2,3.5-12.6,11.6-12.6
		C198.6,14.4,202.2,20,202.2,26.8z M185.1,26.9c0,5.4,2,8.6,5.8,8.6c3.7,0,5.6-3.2,5.6-8.6c0-5-1.9-8-5.8-8
		C187,18.9,185.1,22.1,185.1,26.9z"/>
	<path class="st0" d="M206.1,22.6c0-5.1,0-6.6-0.1-7.7h5.5c0.1,0.4,0.2,2.3,0.2,3.4c1-2,3.3-3.9,7-3.9c5,0,7.8,3.1,7.8,9.1v16.1
		h-5.7V24.5c0-3-0.9-5.4-4.1-5.4c-3.5,0-5,2.3-5,6.9v13.6h-5.7V22.6z"/>
	<path class="st0" d="M236.1,28.5c0,3.6,1.4,7.1,5.3,7.1c3.3,0,4.3-2.2,4.7-3.3h5.6c-1.1,3.7-3.8,7.8-10.5,7.8
		c-7.8,0-10.8-5.6-10.8-12.8c0-6.1,3-12.8,11.1-12.8c8.1,0,10.5,5.9,10.5,12.1c0,0.2,0,1.6-0.1,2H236.1z M246.5,24.6
		c-0.1-3.2-1.4-5.9-5.1-5.9c-4.1,0-5.1,3.5-5.2,5.9H246.5z"/>
</g>
</svg>
