<svg id="Layer_1" data-name="Layer 1" xmlns="http://www.w3.org/2000/svg" viewBox="0 0 244 206.88"><defs><style>.cls-1{fill:#5b5c5c;}.cls-2{fill:#4a494a;}.cls-3{fill:#0a4d59;}.cls-4{fill:#bababa;}.cls-5{fill:#454545;}.cls-6,.cls-7,.cls-8{fill:none;stroke:#fff;}.cls-6,.cls-7{stroke-miterlimit:10;}.cls-7{stroke-width:2px;}.cls-8{stroke-linecap:round;stroke-linejoin:round;}</style></defs><title>logo-only</title><path class="cls-1" d="M255,122.4v47.06a10.74,10.74,0,0,1-7,10.06L209.44,194V138.57Z" transform="translate(-12.18 -14.27)"/><polygon class="cls-2" points="242.84 28.13 242.84 69.48 197.26 85.65 197.26 45.24 242.84 28.13"/><path class="cls-3" d="M184.63,147.36l24.81-8.79V194l-69.19,26a18.45,18.45,0,0,1-13,0L54.06,192.49V137.14h0L84.72,148l43.52,15.44a16.5,16.5,0,0,0,11,0Z" transform="translate(-12.18 -14.27)"/><polygon class="cls-1" points="242.84 108.13 197.26 124.3 172.45 133.09 172.45 94.58 172.41 94.46 197.26 85.65 242.84 69.48 242.84 108.13"/><path class="cls-1" d="M209.44,59.51V99.92l-24.85,8.81-43.35,15.38a19.61,19.61,0,0,1-6.5,1.11l-1-37.32Z" transform="translate(-12.18 -14.27)"/><path class="cls-4" d="M255,42.4L209.44,59.51,133.77,87.9,54.23,58.05,12.52,42.4,124.89,15.51a27.11,27.11,0,0,1,12.35-.06Z" transform="translate(-12.18 -14.27)"/><path class="cls-5" d="M134.74,125.22a19.61,19.61,0,0,0,6.5-1.11l43.35-15.38,0,0.12v38.51l-45.34,16.08a16.5,16.5,0,0,1-11,0L84.72,148l0.18-.51V108.85l0-.12,43.36,15.38A19.22,19.22,0,0,0,134.74,125.22Z" transform="translate(-12.18 -14.27)"/><path class="cls-1" d="M133.77,87.9l1,37.32a19.22,19.22,0,0,1-6.44-1.11L84.94,108.73l-30.88-11V58.51l0.17-.46Z" transform="translate(-12.18 -14.27)"/><polygon class="cls-1" points="72.76 94.46 72.72 94.58 72.72 133.22 72.54 133.73 41.88 122.86 0.34 108.13 0.34 69.13 1.34 69.13 41.88 83.51 72.76 94.46"/><polygon class="cls-5" points="42.05 43.78 41.88 44.24 41.88 83.51 1.34 69.13 0.34 69.13 0.34 28.13 42.05 43.78"/><path class="cls-1" d="M54.06,137.14v55.35L19.12,179.38a10.18,10.18,0,0,1-6.6-9.53V122.4l41.54,14.73h0Z" transform="translate(-12.18 -14.27)"/><path class="cls-6" d="M255,122.4l-45.58,16.17-24.81,8.79-45.34,16.08a16.5,16.5,0,0,1-11,0L84.72,148,54.06,137.13,12.52,122.4" transform="translate(-12.18 -14.27)"/><path class="cls-6" d="M256,83.4l-1,.35L209.44,99.92l-24.85,8.81-43.35,15.38a19.61,19.61,0,0,1-6.5,1.11,19.22,19.22,0,0,1-6.44-1.11L84.94,108.73l-30.88-11L13.52,83.4" transform="translate(-12.18 -14.27)"/><line class="cls-6" x1="197.26" y1="124.3" x2="197.26" y2="179.74"/><polyline class="cls-6" points="41.88 122.87 41.88 178.22 41.88 178.23"/><polyline class="cls-6" points="172.45 94.58 172.45 133.09 172.45 133.22"/><line class="cls-6" x1="72.72" y1="94.58" x2="72.72" y2="133.22"/><polyline class="cls-6" points="121.59 73.63 122.56 110.95 122.59 112.13"/><line class="cls-6" x1="197.26" y1="45.24" x2="197.26" y2="85.65"/><path class="cls-6" d="M12.52,42.4L124.89,15.51a27.11,27.11,0,0,1,12.35-.06L255,42.4" transform="translate(-12.18 -14.27)"/><line class="cls-6" x1="41.88" y1="44.24" x2="41.88" y2="83.51"/><path class="cls-7" d="M255,43.4L138,84.89a12.78,12.78,0,0,1-8.55,0L12.52,43.4" transform="translate(-12.18 -14.27)"/><line class="cls-8" x1="15.33" y1="75.26" x2="15.33" y2="113.9"/><line class="cls-8" x1="228.33" y1="74.26" x2="228.33" y2="112.9"/></svg>