<?xml version="1.0" encoding="utf-8"?>
<!-- Generator: Adobe Illustrator 19.2.0, SVG Export Plug-In . SVG Version: 6.00 Build 0)  -->
<svg version="1.1" id="Layer_1" xmlns="http://www.w3.org/2000/svg" xmlns:xlink="http://www.w3.org/1999/xlink" x="0px" y="0px"
	 viewBox="0 0 244 206.9" style="enable-background:new 0 0 244 206.9;" xml:space="preserve">
<style type="text/css">
	.st0{fill:#5B5C5C;}
	.st1{fill:#4A494A;}
	.st2{fill:#0A4D59;}
	.st3{fill:#BABABA;}
	.st4{fill:#454545;}
	.st5{fill:none;stroke:#FFFFFF;stroke-miterlimit:10;}
	.st6{fill:none;stroke:#FFFFFF;stroke-width:2;stroke-linejoin:round;stroke-miterlimit:10;}
	.st7{fill:none;stroke:#FFFFFF;stroke-linecap:round;stroke-linejoin:round;}
</style>
<path class="st0" d="M242.8,108.1v47.1c0,4.5-2.8,8.5-7,10.1l-38.6,14.5v-55.4L242.8,108.1z"/>
<path class="st1" d="M242.8,29.5v39.9l-45.6,16.2V45.2l44.3-16.6C242.2,28.4,242.8,28.9,242.8,29.5z"/>
<path class="st2" d="M172.5,133.1l24.8-8.8v55.4l-69.2,26c-4.2,1.6-8.8,1.6-13,0l-73.2-27.5v-55.4l0,0l30.7,10.9l43.5,15.4
	c3.6,1.3,7.4,1.3,11,0L172.5,133.1z"/>
<polygon class="st0" points="242.8,108.1 197.3,124.3 172.4,133.1 172.4,94.6 172.4,94.5 197.3,85.7 242.8,69.5 "/>
<path class="st0" d="M197.3,44.7v40.4l-24.9,8.8l-43.4,15.4c-2.1,0.7-4.3,1.1-6.5,1.1l-1-37.3L197.3,44.7z"/>
<path class="st3" d="M242.2,27.7l-45,16.9L121.6,73L42,43.1l-41.7-15L112.7,1.6c4.1-1,8.3-1,12.4-0.1L242.2,27.7z"/>
<path class="st4" d="M122.6,110.9c2.2,0,4.4-0.4,6.5-1.1l43.4-15.4v0.1v38.5l-45.3,16.1c-3.6,1.3-7.4,1.3-11,0l-43.5-15.4l0.2,0.1
	V94.6v-0.1l43.4,15.4C118.2,110.6,120.4,111,122.6,110.9z"/>
<path class="st0" d="M121.6,73.6l1,37.3c-2.2,0-4.4-0.4-6.4-1.1L72.8,94.5l-30.9-11V44.2l0.2-0.5L121.6,73.6z"/>
<polygon class="st0" points="72.8,94.5 72.7,94.6 72.7,133.8 72.5,133.7 41.9,122.9 0.3,108.1 0.3,69.1 1.3,69.1 41.9,83.5 "/>
<path class="st4" d="M42,43.8l-0.2,0.5v39.3L1.3,69.1h-1V29.8c0-0.8,0.8-1.3,1.5-1.1L42,43.8z"/>
<path class="st0" d="M41.9,122.9v55.3L6.9,165.1c-4-1.5-6.6-5.3-6.6-9.5v-47.4L41.9,122.9L41.9,122.9L41.9,122.9z"/>
<path class="st5" d="M242.8,108.4l-0.6,0l-45,16l-24.8,8.8l-45.3,16.1c-3.6,1.3-7.4,1.3-11,0l-43.4-15.4l-30.8-10.9l-41-14.5H0.3"/>
<path class="st5" d="M242.8,69.8l-0.9,0l-44.7,15.9l-24.9,8.8l-43.4,15.4c-2.1,0.7-4.3,1.1-6.5,1.1c-2.2,0-4.4-0.4-6.4-1.1
	L72.8,94.5l-30.9-11L1,69H0.3"/>
<polyline class="st5" points="197.3,124.3 197.3,179.2 197.4,179.7 "/>
<polyline class="st5" points="41.9,122.9 41.9,177.8 41.7,178.2 "/>
<polyline class="st5" points="172.4,94.6 172.4,133.1 172.4,133.2 "/>
<line class="st5" x1="72.7" y1="94.6" x2="72.7" y2="133.5"/>
<polyline class="st5" points="121.6,72.9 122.6,110.9 122.6,110.9 "/>
<line class="st5" x1="197.3" y1="45.2" x2="197.3" y2="85.7"/>
<line class="st5" x1="41.9" y1="44.2" x2="41.9" y2="83.5"/>
<path class="st6" d="M1.2,28.7l116.1,42.9c2.8,1,5.8,1,8.6,0l116.1-43.1L125.1,1.2c-4.1-0.9-8.3-0.9-12.4,0.1L1.2,28.7L1.2,28.7z"/>
<line class="st7" x1="15.3" y1="74.1" x2="15.3" y2="113.3"/>
<line class="st7" x1="228.3" y1="75.1" x2="228.3" y2="112.9"/>
</svg>
