<svg id="Layer_1" data-name="Layer 1" xmlns="http://www.w3.org/2000/svg" viewBox="0 0 239.68 31.95"><defs><style>.cls-1{fill:#fff;}</style></defs><title>logo-text-only-white</title><path class="cls-1" d="M33.69,31.2C32.88,36.1,29.76,40,23.18,40c-7.34,0-10.84-4.65-10.84-12.76,0-7.58,4.08-12.81,11.18-12.81,7.58,0,9.93,5.37,10.12,9H28c-0.34-2.45-1.54-4.61-4.61-4.61-3.79,0-5.33,3.36-5.33,8.2,0,5.95,1.92,8.59,5.23,8.59,3,0,4.08-1.92,4.75-4.41h5.61Z" transform="translate(-12.34 -8.03)"/><path class="cls-1" d="M58.79,26.84C58.79,34,55.48,40,47.28,40S36,33.7,36,27c0-6.24,3.5-12.57,11.61-12.57C55.19,14.41,58.79,20,58.79,26.84Zm-17.08,0c0,5.37,2,8.64,5.81,8.64s5.57-3.21,5.57-8.64c0-5-1.87-8-5.76-8C43.68,18.92,41.71,22.09,41.71,26.89Z" transform="translate(-12.34 -8.03)"/><path class="cls-1" d="M62.7,23.24c0-4,0-6.81-.1-8.35h5.52c0.1,1.1.14,2.69,0.14,4.56a7.9,7.9,0,0,1,7.63-5v5.76c-5.23,0-7.53,2.26-7.53,7.82V39.55H62.7V23.24Z" transform="translate(-12.34 -8.03)"/><path class="cls-1" d="M78.75,22.57c0-5.09,0-6.62-.1-7.68h5.52a28.44,28.44,0,0,1,.19,3.41,7.46,7.46,0,0,1,7-3.89c5,0,7.82,3.07,7.82,9.07V39.55H93.53V24.49c0-3-.86-5.37-4.13-5.37-3.45,0-5,2.26-5,6.86V39.55H78.75v-17Z" transform="translate(-12.34 -8.03)"/><path class="cls-1" d="M108.78,28.47c0,3.65,1.44,7.05,5.33,7.05a4.52,4.52,0,0,0,4.7-3.31h5.57C123.32,36,120.58,40,113.91,40c-7.82,0-10.84-5.61-10.84-12.76,0-6.09,3-12.81,11.13-12.81s10.51,5.95,10.51,12.09c0,0.24,0,1.63-.1,2H108.78Zm10.41-3.84c-0.14-3.21-1.44-5.9-5.09-5.9-4.08,0-5.09,3.45-5.23,5.9h10.32Z" transform="translate(-12.34 -8.03)"/><path class="cls-1" d="M128.6,23.24c0-4,0-6.81-.1-8.35H134c0.1,1.1.14,2.69,0.14,4.56a7.9,7.9,0,0,1,7.63-5v5.76c-5.23,0-7.53,2.26-7.53,7.82V39.55H128.6V23.24Z" transform="translate(-12.34 -8.03)"/><path class="cls-1" d="M148.75,32.12c0.38,2.35,2.06,3.69,4.7,3.69s3.93-1.2,3.93-2.93-1.49-2.64-5.37-3.74c-6.38-1.77-7.92-4-7.92-7.48,0-3.17,2-7.24,9-7.24,6.38,0,9,3.31,9.26,7.34h-5.52c-0.24-1.54-1.1-3.17-4-3.17-2.11,0-3.21,1-3.21,2.59s1,2.21,4.75,3.21c6.57,1.68,8.59,4,8.59,8,0,4.89-4,7.63-9.69,7.63s-9.5-2.59-10-7.87h5.52Z" transform="translate(-12.34 -8.03)"/><path class="cls-1" d="M164.22,14.89h3.65V8h5.61v6.86h4.61v4.46h-4.61V32.93c0,1.82.43,2.59,2.49,2.59a9.81,9.81,0,0,0,1.63-.14v4a13.56,13.56,0,0,1-3.74.48c-4.37,0-6-1.78-6-6.19V19.35h-3.65V14.89Z" transform="translate(-12.34 -8.03)"/><path class="cls-1" d="M202.16,26.84c0,7.2-3.31,13.15-11.52,13.15s-11.32-6.29-11.32-13c0-6.24,3.5-12.57,11.61-12.57C198.56,14.41,202.16,20,202.16,26.84Zm-17.08,0c0,5.37,2,8.64,5.81,8.64s5.57-3.21,5.57-8.64c0-5-1.87-8-5.76-8C187,18.92,185.08,22.09,185.08,26.89Z" transform="translate(-12.34 -8.03)"/><path class="cls-1" d="M206.07,22.57c0-5.09,0-6.62-.1-7.68h5.52a28.48,28.48,0,0,1,.19,3.41,7.45,7.45,0,0,1,7-3.89c5,0,7.82,3.07,7.82,9.07V39.55h-5.66V24.49c0-3-.86-5.37-4.13-5.37-3.45,0-5,2.26-5,6.86V39.55h-5.66v-17Z" transform="translate(-12.34 -8.03)"/><path class="cls-1" d="M236.09,28.47c0,3.65,1.44,7.05,5.33,7.05a4.52,4.52,0,0,0,4.7-3.31h5.57C250.63,36,247.9,40,241.23,40c-7.82,0-10.84-5.61-10.84-12.76,0-6.09,3-12.81,11.13-12.81S252,20.36,252,26.5c0,0.24,0,1.63-.1,2H236.09Zm10.41-3.84c-0.14-3.21-1.44-5.9-5.09-5.9-4.08,0-5.09,3.45-5.23,5.9h10.32Z" transform="translate(-12.34 -8.03)"/></svg>