<svg id="Layer_1" data-name="Layer 1" xmlns="http://www.w3.org/2000/svg" viewBox="0 0 243.99 206.92"><defs><style>.cls-1{fill:#5b5c5c;}.cls-2{fill:#4a494a;}.cls-3{fill:#0a4d59;}.cls-4{fill:#bababa;}.cls-5{fill:#454545;}.cls-6,.cls-7,.cls-8{fill:none;stroke:#fff;}.cls-6,.cls-7{stroke-miterlimit:10;}.cls-7{stroke-width:2px;}.cls-8{stroke-linecap:round;stroke-linejoin:round;}</style></defs><title>logo-only</title><path class="cls-1" d="M242.82,108.13v47.06a10.74,10.74,0,0,1-7,10.06l-38.56,14.48V124.3Z" transform="translate(0 0)"/><path class="cls-2" d="M242.84,29.53V69.48L197.26,85.65V45.24l44.26-16.62A1,1,0,0,1,242.84,29.53Z" transform="translate(0 0)"/><path class="cls-3" d="M172.45,133.09l24.81-8.79v55.43l-69.19,26a18.45,18.45,0,0,1-13,0L41.88,178.22V122.87h0l30.66,10.86,43.52,15.44a16.5,16.5,0,0,0,11,0Z" transform="translate(0 0)"/><polygon class="cls-1" points="242.84 108.13 197.26 124.3 172.45 133.09 172.45 94.58 172.41 94.46 197.26 85.65 242.84 69.48 242.84 108.13"/><path class="cls-1" d="M197.28,44.51V84.92l-24.85,8.81-43.35,15.38a19.61,19.61,0,0,1-6.5,1.11l-1-37.32Z" transform="translate(0 0)"/><path class="cls-4" d="M242.82,28.13L197.26,45.24,121.59,73.63,42,43.78,0.34,28.13,112.71,1.24a27.11,27.11,0,0,1,12.35-.06Z" transform="translate(0 0)"/><path class="cls-5" d="M122.56,111a19.61,19.61,0,0,0,6.5-1.11l43.35-15.38v38.63l-45.34,16.08a16.5,16.5,0,0,1-11,0L72.54,133.73l0.18-.51V94.46l43.36,15.38A19.22,19.22,0,0,0,122.56,111Z" transform="translate(0 0)"/><path class="cls-1" d="M121.59,73.63l1,37.32a19.22,19.22,0,0,1-6.44-1.11L72.76,94.46l-30.88-11V44.24l0.17-.46Z" transform="translate(0 0)"/><polygon class="cls-1" points="72.76 94.46 72.72 94.58 72.72 133.22 72.54 133.73 41.88 122.86 0.34 108.13 0.34 69.13 1.34 69.13 41.88 83.51 72.76 94.46"/><path class="cls-5" d="M42,43.78l-0.17.46V83.51L1.34,69.13h-1V29.75A1.12,1.12,0,0,1,1.86,28.7Z" transform="translate(0 0)"/><path class="cls-1" d="M41.88,122.87v55.35L6.94,165.11a10.18,10.18,0,0,1-6.6-9.53V108.13l41.54,14.73h0Z" transform="translate(0 0)"/><path class="cls-6" d="M242.82,108.13L197.24,124.3l-24.81,8.79-45.34,16.08a16.5,16.5,0,0,1-11,0L72.54,133.73,41.88,122.86,0.34,108.13" transform="translate(0 0)"/><path class="cls-6" d="M243.82,69.13l-1,.35L197.26,85.65l-24.85,8.81-43.35,15.38a19.61,19.61,0,0,1-6.5,1.11,19.22,19.22,0,0,1-6.44-1.11L72.76,94.46l-30.88-11L1.34,69.13" transform="translate(0 0)"/><line class="cls-6" x1="197.26" y1="124.3" x2="197.26" y2="179.74"/><polyline class="cls-6" points="41.88 122.87 41.88 178.22 41.88 178.23"/><polyline class="cls-6" points="172.45 94.58 172.45 133.09 172.45 133.22"/><line class="cls-6" x1="72.72" y1="94.58" x2="72.72" y2="133.22"/><polyline class="cls-6" points="121.58 72.9 122.56 110.95 122.56 110.95"/><line class="cls-6" x1="197.26" y1="45.24" x2="197.26" y2="85.65"/><path class="cls-6" d="M0.34,28.13L112.71,1.24a27.11,27.11,0,0,1,12.35-.06l117.76,27" transform="translate(0 0)"/><line class="cls-6" x1="41.88" y1="44.24" x2="41.88" y2="83.51"/><path class="cls-7" d="M242.82,29.13l-117,42.49a12.78,12.78,0,0,1-8.55,0L0.34,29.13" transform="translate(0 0)"/><line class="cls-8" x1="15.33" y1="75.26" x2="15.33" y2="113.9"/><line class="cls-8" x1="228.33" y1="74.26" x2="228.33" y2="112.9"/></svg>